<?xml version="1.0" encoding="UTF-8"?>
<!-- Generator: Adobe Illustrator 16.0.0, SVG Export Plug-In . SVG Version: 6.00 Build 0)  -->
<!DOCTYPE svg PUBLIC "-//W3C//DTD SVG 1.1//EN" "http://www.w3.org/Graphics/SVG/1.1/DTD/svg11.dtd">
<svg version="1.1" id="Layer_1" xmlns="http://www.w3.org/2000/svg" xmlns:xlink="http://www.w3.org/1999/xlink" x="0px" y="0px" viewBox="0 0 3000 3000" enable-background="new 0 0 3000 3000" xml:space="preserve">
<g>
	<polygon fill="#DD0932" points="1500,241.085 1500,241.085 1500,241.085 327.966,659.04 506.722,2208.753 1500,2758.915    1500,2758.915 1500,2758.915 2493.283,2208.753 2672.034,659.04  "/>
	<polygon fill="#C31631" points="1500,241.085 1500,520.571 1500,519.3 1500,1794.573 1500,1794.573 1500,2758.915 1500,2758.915    2493.283,2208.753 2672.034,659.04  "/>
	<path fill="#FFFFFF" d="M1500,519.3L767.323,2162.188l0,0h273.186l0,0l147.289-367.614h621.911l147.284,367.614l0,0h273.175l0,0   L1500,519.3L1500,519.3L1500,519.3L1500,519.3L1500,519.3z M1714.02,1567.975h-428.028L1500,1053.071L1714.02,1567.975z"/>
</g>
</svg>