<svg id="Capa_1" data-name="Capa 1" xmlns="http://www.w3.org/2000/svg" viewBox="0 0 597.14 245.35"><defs><style>.cls-1{fill:#fff;}.cls-2{fill:#e65300;}.cls-3{fill:#9bc6ca;}.cls-4{fill:#6aacb3;}.cls-5{fill:#228f99;}.cls-6{fill:#007481;}</style></defs><path class="cls-1" d="M395.29,190.07l9.21-29.34h8.17L422,190.07h-7.72l-1.62-6h-8.44l-1.49,6Zm13-22.39-2.66,10.75h5.55Z" transform="translate(0 0)"/><path class="cls-1" d="M426.66,160.73h11.83c8.12,0,11.19,4.16,11.19,9.8,0,4-1.63,7.08-4.83,8.8l5.73,10.74H442l-4.43-9.3h-3.65v9.3h-7.27Zm15.3,9.84c0-2.61-.95-3.92-4.33-3.92h-3.7V175h3.83C440.29,175,442,173.82,442,170.57Z" transform="translate(0 0)"/><path class="cls-1" d="M455.55,160.73h9.61c11,0,14.63,5.2,14.63,14.4,0,7-2.12,14.94-14.58,14.94h-9.66Zm7.27,5.92v17.42h2.75c6,0,6.45-3.66,6.45-8.62,0-5.73-.58-8.8-7.08-8.8Z" transform="translate(0 0)"/><path class="cls-1" d="M501.27,160.73h7V180c0,8.66-6.64,10.51-11.83,10.51-5,0-11.42-1.67-11.42-10.56V160.73h7.27v17.88c0,4.87,1.72,6,4.47,6,3.29,0,4.51-1.49,4.51-6Z" transform="translate(0 0)"/><path class="cls-1" d="M514.77,184.07h7.58V166.74h-7.58v-6h22.48v6h-7.63v17.33h7.63v6H514.77Z" transform="translate(0 0)"/><path class="cls-1" d="M550.11,190.07h-6.86V160.73h7.9l9.52,17.61V160.73h6.77v29.34h-7.35l-10-18.77Z" transform="translate(0 0)"/><path class="cls-1" d="M597.14,175.4c0,8.49-3.11,15.12-12.54,15.12-8.44,0-12.33-5.1-12.33-14.8,0-8.85,3.39-15.39,12.28-15.39C592.9,160.33,597.14,164.21,597.14,175.4Zm-7.71,0c0-7.17-.59-9.16-4.88-9.16-3.88,0-4.56,2.3-4.56,9.48,0,5.91.41,8.89,4.61,8.89S589.43,182.17,589.43,175.4Z" transform="translate(0 0)"/><path class="cls-2" d="M238.24,170.8A191,191,0,0,1,205.12,206l2.88,3.54A194.23,194.23,0,0,0,240.83,175c20.5,28,54.61,61.15,104,68.21l1.17-8.2c-50.53-7.21-84.37-42.95-104.5-73.35C240.6,160.21,238.24,170.8,238.24,170.8Z" transform="translate(0 0)"/><path class="cls-3" d="M139.49,235.67,138,225.12c49.09-7,81.57-43.53,100.18-73,.57-1,5.59-9.68,7.51-13.34l9.42,5c-2.12,4-7.53,13.4-7.76,13.8l-.1.18C227.43,189.1,192.66,228.08,139.49,235.67Z" transform="translate(0 0)"/><path class="cls-1" d="M121.27,245.35c-33.7,0-65.36-12.56-89.17-35.35l8.42-8.79c21.53,20.61,50.21,32,80.75,32A125.26,125.26,0,0,0,139,231.9c22.78-3.25,44.24-13,63.77-28.83l7.68,9.45c-21.28,17.29-44.73,27.86-69.72,31.43A136.47,136.47,0,0,1,121.27,245.35Z" transform="translate(0 0)"/><path class="cls-4" d="M364.19,198.26a89.64,89.64,0,0,1-12.75-.92c-53.15-7.59-84.25-61.56-89.94-72.3l8.22-4.36c3.26,6.15,33.32,60.34,83,67.45a81.48,81.48,0,0,0,11.43.82Z" transform="translate(0 0)"/><path class="cls-1" d="M322.45,63.14,320.69,60c-34.93,19.37-55.39,57.28-59.13,64.69l-3.7,7.53L254,130.27l-1.62,3.58,13.89,6.23,6.22-13.86c3.66-6.78,32.08-56.83,77.82-65.25l-1.38-7.47A87.16,87.16,0,0,0,322.45,63.14Z" transform="translate(0 0)"/><path class="cls-3" d="M163.87,59.48l1.08-2A93.82,93.82,0,0,0,134.2,47.13a92.22,92.22,0,0,0-12.89-.91C87,46.22,56.38,66.83,45,97.51l11,4.08C65.71,75.5,91.94,58,121.31,58a80.56,80.56,0,0,1,11.23.8c19.91,2.84,39.05,13.71,56.87,32.28l6.5-6.23C187.13,75.46,176.43,66.27,163.87,59.48Z" transform="translate(0 0)"/><path class="cls-4" d="M83.46,196.83c-29.54-13.73-48.63-42.77-48.63-74A79.39,79.39,0,0,1,48.21,78.66,83.47,83.47,0,0,1,59.9,64.74l5.43,5.66A75.82,75.82,0,0,0,54.73,83a71.56,71.56,0,0,0-12.06,39.84c0,28.61,16.89,54.23,44.09,66.87Z" transform="translate(0 0)"/><path class="cls-4" d="M227.35,132.48l-3.4-7.93c-.31-.62-.74-1.44-1.26-2.4-5.95,11.27-37.28,66.32-88.78,73.68-4.2.6-8.54,2-12.64,2a80.58,80.58,0,0,1-34.2-7.51l-3.92,7.2a89.84,89.84,0,0,0,38.12,8.37,98.55,98.55,0,0,0,13.83-1c49.69-7.1,81.06-52.55,92.61-72.54Z" transform="translate(0 0)"/><path class="cls-2" d="M231.28,130.79l-3.93,1.69-3.4-7.93a182.75,182.75,0,0,0-28-39.72l-6.5,6.23a163.69,163.69,0,0,1,25.36,34.57l11.94,20.83,10.2-5.85Z" transform="translate(0 0)"/><path class="cls-4" d="M296,68.23l-5-5.72C309,46.63,328.69,37.08,349.41,34.13a104.39,104.39,0,0,1,14.74-1.06c25.23,0,48.87,9.33,66.56,26.25l-5.26,5.5a88.1,88.1,0,0,0-61.3-24.14,96.55,96.55,0,0,0-13.66,1C331.25,44.4,312.91,53.34,296,68.23Z" transform="translate(0 0)"/><path class="cls-5" d="M257.31,142.33l-26.39-12.55,6.27-13.2c4.08-8.57,19.49-38.37,46.62-62.19l11-9.64,19.28,22-11,9.64c-23.52,20.65-37,47.59-39.5,52.79Z" transform="translate(0 0)"/><path class="cls-6" d="M65.37,70.45l-5.51-5.76C76.17,49.09,98,40.5,121.31,40.5a95.62,95.62,0,0,1,46.35,12l-3.79,7a87.31,87.31,0,0,0-42.56-11C100.06,48.48,80.19,56.28,65.37,70.45Z" transform="translate(0 0)"/><path class="cls-2" d="M10.75,122.85H5.88a108.52,108.52,0,0,1,34-79l3.36,3.52A103.72,103.72,0,0,0,10.75,122.85Z" transform="translate(0 0)"/><path class="cls-1" d="M203.46,39.6C183.79,23.87,162.22,14.24,139.36,11a127.41,127.41,0,0,0-18.05-1.29A120,120,0,0,0,55.56,29L52,23.51A126.47,126.47,0,0,1,121.31,3.2a134.32,134.32,0,0,1,19,1.35c24,3.43,46.65,13.52,67.25,30Z" transform="translate(0 0)"/><path class="cls-6" d="M263.81,83.63l-9.07-6.86C272.68,53,303.25,23.44,347,17.2A122.14,122.14,0,0,1,364.15,16a115.12,115.12,0,0,1,42.45,8l-4.18,10.57a103.63,103.63,0,0,0-38.27-7.2,111.39,111.39,0,0,0-15.55,1.11C308.68,34.15,280.46,61.6,263.81,83.63Z" transform="translate(0 0)"/><path class="cls-4" d="M245.53,102.13,232.85,97l3.77-9.27.32-.51c16.38-25.92,52.29-70.61,108.81-78.67a130.77,130.77,0,0,1,18.4-1.32V20.9a116.82,116.82,0,0,0-16.46,1.18C299.45,29,267.36,64.86,248.84,94Z" transform="translate(0 0)"/><path class="cls-2" d="M446.87,42.43C424.81,21.32,395.43,9.69,364.15,9.69a127.41,127.41,0,0,0-18,1.29l-.91-6.43a134.32,134.32,0,0,1,19-1.35c33,0,63.94,12.26,87.21,34.54Z" transform="translate(0 0)"/><path class="cls-1" d="M137.77,223.62,135.41,207c66.26-9.46,99.27-86.64,99.6-87.41,1.46-3.53,36.88-86.74,112.68-97.56l2.36,16.58c-66.46,9.48-99.27,86.63-99.59,87.41C249,129.6,213.55,212.8,137.77,223.62Z" transform="translate(0 0)"/><path class="cls-1" d="M68.15,206.86l7.27-12.51c17.83,10.37,38.5,14.23,59.77,11.19l2.05,14.31a112.55,112.55,0,0,0,40.23-14.1l-12.13-21.11a86.62,86.62,0,0,1-44.07,12,79.71,79.71,0,0,1-55.51-21.83,72.8,72.8,0,0,1-16.5-23.45l-20.91,9.15A95.72,95.72,0,0,0,50,191.31l-1,1.1A101.38,101.38,0,0,0,68.15,206.86Z" transform="translate(0 0)"/><path class="cls-1" d="M121.27,227.36c-29,0-56.29-10.78-76.74-30.35l4.59-4.8c19.21,18.38,44.83,28.5,72.15,28.51a112.6,112.6,0,0,0,15.92-1.15c54.65-7.8,87.68-54,102.55-81l3.77-8.92,6.12,2.58-4,9.4c-15.42,28-49.9,76.33-107.51,84.55A118.45,118.45,0,0,1,121.27,227.36Z" transform="translate(0 0)"/><path class="cls-1" d="M68.54,206.2C38,188.45,19.73,157.29,19.73,122.85a95.36,95.36,0,0,1,1.17-14.94l7.52,1.2a87.21,87.21,0,0,0-1.08,13.74c0,31.7,16.83,60.4,45,76.77Z" transform="translate(0 0)"/><path class="cls-2" d="M31.88,109.66l-14.44-2.29c4.18-26.32,18.73-49.58,41-65.49C81,25.73,109.12,19.06,137.63,23.13a111.5,111.5,0,0,1,19,4.45l-4.56,13.88a97.22,97.22,0,0,0-16.51-3.87C85,30.4,39.43,62,31.88,109.66Z" transform="translate(0 0)"/><path class="cls-6" d="M170.18,199.73,166.87,194l2.88-1.66c37.59-21.58,58.59-62.83,62.42-70.88l1.43-3,6,2.85-1.43,3c-4,8.37-25.8,51.24-65.11,73.8Z" transform="translate(0 0)"/><path class="cls-1" d="M253.23,118.48c-.34-.79-2.71-6.39-7.21-14.56l1.69-.93C232,74.53,197,25.56,138.47,17.2A122.25,122.25,0,0,0,121.31,16V27.34a111.39,111.39,0,0,1,15.55,1.11A108.14,108.14,0,0,1,155,32.68L150.8,45.31c54,17.77,81.18,81.28,81.44,81.9,1.5,3.6,37.56,88.31,115,99.37l3.22-22.5C285.93,194.87,253.54,119.23,253.23,118.48Z" transform="translate(0 0)"/><path class="cls-1" d="M466.46,122.85h-9.13a87.47,87.47,0,0,0-30.44-66c-20.78-18-49-26.05-77.38-22l-1.28-9c31-4.43,61.86,4.38,84.64,24.14A96.59,96.59,0,0,1,466.46,122.85Z" transform="translate(0 0)"/><rect class="cls-6" x="109.75" y="84.55" width="24.69" height="76.61"/><rect class="cls-1" x="83.79" y="110.51" width="76.61" height="24.7"/><path class="cls-6" d="M489.11,134l-9.76-.9c.31-3.37.47-6.82.47-10.26a108.83,108.83,0,0,0-34.09-79.23l6.78-7.08a118.54,118.54,0,0,1,37.11,86.31C489.62,126.59,489.45,130.34,489.11,134Z" transform="translate(0 0)"/><path class="cls-3" d="M455.53,139.71l-6.37-1.26a81.21,81.21,0,0,0,1.54-15.73,80.3,80.3,0,0,0-25.21-58.44L430,59.59a86.74,86.74,0,0,1,27.22,63.13A87.78,87.78,0,0,1,455.53,139.71Z" transform="translate(0 0)"/><path class="cls-2" d="M444.37,141.28l-14.74-3.76a59.62,59.62,0,0,0,1.83-14.67c0-34.82-30.2-63.14-67.31-63.14a78.75,78.75,0,0,0-11,.78q-1.46.21-2.91.48l-2.74-15c1.16-.22,2.33-.41,3.51-.58a94.14,94.14,0,0,1,13.13-.93c45.5,0,82.52,35.15,82.52,78.36A74.51,74.51,0,0,1,444.37,141.28Z" transform="translate(0 0)"/><path class="cls-3" d="M364.19,230.89a122.8,122.8,0,0,1-17.37-1.25C321,226,297,214,275.58,194l9.33-10c19.36,18,40.84,28.85,63.85,32.13a111.78,111.78,0,0,0,18.39,1.07l.32,13.7C366.38,230.87,365.28,230.89,364.19,230.89Z" transform="translate(0 0)"/><path class="cls-1" d="M438.25,102.11a72.06,72.06,0,0,0-19.11-30.69A77.83,77.83,0,0,0,376,50.65l1.51-10.55a88.46,88.46,0,0,1,49,23.62A82.66,82.66,0,0,1,448.43,99Z" transform="translate(0 0)"/><path class="cls-1" d="M249.14,81.76l-12.81-9.05c20.49-29,55.9-65.24,108.21-72.71l2.21,15.52C300,22.2,267.86,55.23,249.14,81.76Z" transform="translate(0 0)"/><path class="cls-4" d="M245.31,88.1,238.75,80a190.55,190.55,0,0,0-36.3-39.17l6.08-7.61a200,200,0,0,1,38.08,41l6.25,7.64Z" transform="translate(0 0)"/><path class="cls-3" d="M121.27,237c-31.53,0-61.14-11.73-83.39-33A112.07,112.07,0,0,1,3.3,131.31v-.2L3,123.05l10.65-.4.29,8a101.5,101.5,0,0,0,31.32,65.65c20.25,19.38,47.25,30.06,76,30.06a118,118,0,0,0,16.72-1.2l1.5,10.55A130.14,130.14,0,0,1,121.27,237Z" transform="translate(0 0)"/><path class="cls-6" d="M30,212.2A123.78,123.78,0,0,1,0,167.7L17,161a105.65,105.65,0,0,0,25.62,38Z" transform="translate(0 0)"/><path class="cls-6" d="M370.31,204.88a95.8,95.8,0,0,1-19.83-.77c-15.19-2.17-29.9-8.23-43.74-18l-4.3,6.09c14.81,10.47,30.62,17,47,19.31a105.25,105.25,0,0,0,14.77,1.06c2.05,0,4.08-.08,6.12-.2Z" transform="translate(0 0)"/><path class="cls-2" d="M397,203.4h9.78c11.17,0,14.89,5.29,14.89,14.66,0,7.07-2.16,15.21-14.84,15.21H397Zm7.4,6v17.74h2.8c6.11,0,6.57-3.73,6.57-8.78,0-5.84-.6-9-7.21-9Z" transform="translate(0 0)"/><path class="cls-2" d="M424.14,233.27l9.37-29.87h8.32l9.51,29.87h-7.86l-1.65-6.11h-8.59l-1.52,6.11Zm13.23-22.79-2.71,10.93h5.65Z" transform="translate(0 0)"/><path class="cls-2" d="M466.27,215.62l5.28-12.22H479l-9.33,18.06v11.81h-7.39V221.69l-9.65-18.29h8Z" transform="translate(0 0)"/><path class="cls-6" d="M507.09,212a5,5,0,0,0-5.33-5.24,9.13,9.13,0,0,0-6.34,3.17l-1.93-2.38a12.72,12.72,0,0,1,9-3.91c4.64,0,8.37,2.76,8.37,8,0,6.11-8.09,14.66-14.11,19.16h15.53V234H492.06v-2.57C497.62,227.38,507.09,217.91,507.09,212Z" transform="translate(0 0)"/><path class="cls-6" d="M541.59,218.23c0,7.31-2,16.18-11.62,16.18-7.58,0-11.21-5.29-11.21-14.8,0-8.5,2.52-15.94,11.53-15.94C538.42,203.67,541.59,209.32,541.59,218.23Zm-16.91,10.66,8.87-21.36a8,8,0,0,0-3.54-.74c-6.11,0-7.53,6-7.53,11.81C522.48,222.55,522.8,226.46,524.68,228.89Zm13.19-10.15c0-3.54-.32-7.3-2.3-9.65l-8.91,21.46a7.77,7.77,0,0,0,3.63.78C536.68,231.33,537.87,224.71,537.87,218.74Z" transform="translate(0 0)"/><path class="cls-6" d="M563.14,212a5,5,0,0,0-5.33-5.24,9.11,9.11,0,0,0-6.34,3.17l-1.93-2.38a12.72,12.72,0,0,1,9-3.91c4.64,0,8.37,2.76,8.37,8,0,6.11-8.09,14.66-14.11,19.16h15.53V234H548.11v-2.57C553.67,227.38,563.14,217.91,563.14,212Z" transform="translate(0 0)"/><path class="cls-6" d="M576.28,230.78h8.4V208l-7.62,1.52v-3l11.25-2.8v27.06h8.83V234H576.28Z" transform="translate(0 0)"/></svg>