<?xml version="1.0" standalone="yes"?>
<svg xmlns="http://www.w3.org/2000/svg" width="512" height="512">
<path style="fill:#fafafa; stroke:none;" d="M0 0L0 512L233 512L233 511C198.017 510.71 158.677 496.394 129 478.6C120.154 473.297 106.687 467.457 100.589 458.907C96.0404 452.529 97.5583 440.523 96.8302 433C94.6077 410.033 92.5238 387.018 90.9105 364C86.8225 305.673 81.3918 247.206 75.8302 189C73.6249 165.92 70.0154 142.189 70 119L442 119C441.985 142.189 438.375 165.92 436.17 189C430.608 247.206 425.178 305.672 421.09 364C419.476 387.018 417.392 410.033 415.17 433C414.442 440.523 415.96 452.529 411.411 458.907C405.313 467.457 391.846 473.297 383 478.6C353.323 496.394 313.983 510.71 279 511L279 512L512 512L512 0L0 0z"/>
<path style="fill:#252325; stroke:none;" d="M147 15L148 85L213 85L213 67L165 67L165 34L213 34L213 16L147 15z"/>
<path style="fill:#5fa6d9; stroke:none;" d="M167 15L168 16L167 15z"/>
<path style="fill:#a8bcc9; stroke:none;" d="M168 15L168 16L213 16C201.299 11.09 180.742 15 168 15M224 15L224 16L289 16L289 35C290.518 31.3832 291.879 18.7859 288.397 16.0278C284.852 13.2207 275.32 15 271 15L224 15M298 15L298 59L299 59L299 16L344 16C332.061 10.9902 311.004 15 298 15z"/>
<path style="fill:#5fa6d9; stroke:none;" d="M344 15L345 16L344 15z"/>
<path style="fill:#252325; stroke:none;" d="M299 16L299 59L346 59L346 67L299 67L299 85L364 85L364 43L316 43L316 34L364 34L365 15L299 16z"/>
<path style="fill:#a8bcc9; stroke:none;" d="M213 16L213 34L214 34L213 16z"/>
<path style="fill:#252325; stroke:none;" d="M224 16L224 59L271 59L271 67L224 67L224 85L289 85L289 43L241 43L243.318 35.0278L257 34L289 34L289 16L224 16z"/>
<path style="fill:#a8bcc9; stroke:none;" d="M165 34L165 67L166 67L165 34z"/>
<path style="fill:#5fa6d9; stroke:none;" d="M242 34L242 35L289 35C276.823 29.8905 255.265 34 242 34M316 34L316 35L364 35C351.586 29.7907 329.526 34 316 34M241 35L241 43L242 43L241 35z"/>
<path style="fill:#a8bcc9; stroke:none;" d="M316 35L316 43L317 43L316 35M289 43L289 85L290 85C290 73.0427 293.611 53.9878 289 43M270 59L270 67L271 67L270 59z"/>
<path style="fill:#5fa6d9; stroke:none;" d="M345 59L345 67L346 67L345 59z"/>
<path style="fill:#a8bcc9; stroke:none;" d="M213 67L213 85L148 85L148 86L214 86L213 67M298 67L298 86L364 86L364 85L299 85L298 67M224 85L224 86L289 86L268 85L224 85z"/>
<path style="fill:#5fa6d9; stroke:none;" d="M70 119L70 120L442 120L409 119L333 119L70 119z"/>
<path style="fill:#0178c9; stroke:none;" d="M70 120C75.62 150.272 75.2411 182.349 78.1698 213C82.7801 261.251 87.5217 309.649 90.9105 358C92.5479 381.362 95.1995 404.647 96.9113 428C97.5163 436.254 96.0629 450.616 100.028 457.907C102.898 463.184 111.079 467.138 116 470.308C130.644 479.74 145.844 487.538 162 494C224.425 518.967 294.084 516.387 356 491.6C370.749 485.696 384.767 477.763 398 468.996C402.385 466.091 409.391 462.654 411.972 457.907C415.937 450.616 414.484 436.254 415.089 428C416.801 404.647 419.452 381.362 421.09 358C424.478 309.649 429.22 261.251 433.83 213C436.759 182.349 436.38 150.272 442 120L70 120z"/>
<path style="fill:#5fa6d9; stroke:none;" d="M70 122L70 126L71 126L70 122M441 122L441 126L442 126L441 122z"/>
<path style="fill:#a8bcc9; stroke:none;" d="M70 126L70 129L71 129L70 126M441 126L441 129L442 129L441 126z"/>
<path style="fill:#5fa6d9; stroke:none;" d="M71 134L71 137L72 137L71 134M440 134L440 137L441 137L440 134z"/>
<path style="fill:#a8bcc9; stroke:none;" d="M71 137L71 141L72 141L71 137M440 137L440 141L441 141L440 137z"/>
<path style="fill:#5fa6d9; stroke:none;" d="M72 145L72 149L73 149L72 145M439 145L439 149L440 149L439 145z"/>
<path style="fill:#a8bcc9; stroke:none;" d="M72 149L72 152L73 152L72 149M439 149L439 152L440 152L439 149z"/>
<path style="fill:#5fa6d9; stroke:none;" d="M73 157L73 160L74 160L73 157M438 157L438 160L439 160L438 157z"/>
<path style="fill:#a8bcc9; stroke:none;" d="M73 160L73 164L74 164L73 160M438 160L438 164L439 164L438 160z"/>
<path style="fill:#5fa6d9; stroke:none;" d="M74 168L74 172L75 172L74 168M437 168L437 172L438 172L437 168z"/>
<path style="fill:#a8bcc9; stroke:none;" d="M74 172L74 176L75 176L74 172M437 172L437 176L438 176L437 172z"/>
<path style="fill:#5fa6d9; stroke:none;" d="M75 180L75 184L76 184L75 180M436 180L436 184L437 184L436 180z"/>
<path style="fill:#a8bcc9; stroke:none;" d="M75 184L75 187L76 187L75 184M436 184L436 187L437 187L436 184z"/>
<path style="fill:#5fa6d9; stroke:none;" d="M76 192L76 195L77 195L76 192M435 192L435 195L436 195L435 192z"/>
<path style="fill:#a8bcc9; stroke:none;" d="M76 195L76 199L77 199L76 195z"/>
<path style="fill:#5fa6d9; stroke:none;" d="M140 195L140 196L372 196L350 195L303 195L140 195z"/>
<path style="fill:#a8bcc9; stroke:none;" d="M435 195L435 199L436 199L435 195z"/>
<path style="fill:#fafafa; stroke:none;" d="M140 196L144 244L236 244L236 245C213.437 251.5 191.017 266.739 170 277.247C164.877 279.809 150.925 283.886 148.643 289.39C147.002 293.348 149.02 301.765 149.576 306C150.898 316.072 151.972 326.842 152 337L259 337L312 338L308 378L305.258 395.487L284 402.424L256 409.515L225 401.421L204.603 394.487L203 384L202 359L154 359L160 431L226 449.421L256 457.35L286 449.421L352 431C352.958 384.604 358.181 336.043 364 290L276 290L276 289C298.568 282.499 320.954 266.77 342 256.247C348.742 252.876 362.605 248.598 366.972 242.363C369.478 238.785 368.834 231.216 369.039 227C369.532 216.846 370.145 205.99 372 196L140 196z"/>
<path style="fill:#a8bcc9; stroke:none;" d="M140 198L140 202L141 202L140 198M371 198L371 202L372 202L371 198z"/>
<path style="fill:#5fa6d9; stroke:none;" d="M140 202L140 205L141 205L140 202M371 202L371 206L372 206L371 202M77 203L77 207L78 207L77 203M434 203L434 207L435 207L434 203z"/>
<path style="fill:#a8bcc9; stroke:none;" d="M77 207L77 210L78 210L77 207M434 207L434 210L435 210L434 207M141 210L141 213L142 213L141 210M370 210L370 214L371 214L370 210z"/>
<path style="fill:#5fa6d9; stroke:none;" d="M141 213L141 217L142 217L141 213M370 214L370 218L371 218L370 214M78 215L78 218L79 218L78 215M433 215L433 218L434 218L433 215z"/>
<path style="fill:#a8bcc9; stroke:none;" d="M78 218L78 222L79 222L78 218M433 218L433 222L434 222L433 218M142 222L142 225L143 225L142 222M369 222L369 226L370 226L369 222z"/>
<path style="fill:#5fa6d9; stroke:none;" d="M142 225L142 229L143 229L142 225M79 226L79 230L80 230L79 226M369 226L369 230L370 230L369 226M432 226L432 230L433 230L432 226z"/>
<path style="fill:#a8bcc9; stroke:none;" d="M79 230L79 234L80 234L79 230M432 230L432 234L433 234L432 230M143 234L143 237L144 237L143 234M368 234L368 237L369 237L368 234z"/>
<path style="fill:#5fa6d9; stroke:none;" d="M143 237L143 241L144 241L143 237M368 237L368 242L369 242L368 237M80 238L80 242L81 242L80 238M431 238L431 242L432 242L431 238z"/>
<path style="fill:#a8bcc9; stroke:none;" d="M80 242L80 245L81 245L80 242M431 242L431 245L432 245L431 242M366 243L367 244L366 243z"/>
<path style="fill:#5fa6d9; stroke:none;" d="M367 243L368 244L367 243M235 244L236 245L235 244z"/>
<path style="fill:#a8bcc9; stroke:none;" d="M364 244L365 245L364 244z"/>
<path style="fill:#5fa6d9; stroke:none;" d="M365 244L366 245L365 244M233 245L234 246L233 245z"/>
<path style="fill:#a8bcc9; stroke:none;" d="M362 245L363 246L362 245z"/>
<path style="fill:#5fa6d9; stroke:none;" d="M363 245L364 246L363 245M231 246L232 247L231 246z"/>
<path style="fill:#a8bcc9; stroke:none;" d="M360 246L361 247L360 246z"/>
<path style="fill:#5fa6d9; stroke:none;" d="M361 246L362 247L361 246M229 247L230 248L229 247z"/>
<path style="fill:#a8bcc9; stroke:none;" d="M358 247L359 248L358 247z"/>
<path style="fill:#5fa6d9; stroke:none;" d="M359 247L360 248L359 247M227 248L228 249L227 248z"/>
<path style="fill:#a8bcc9; stroke:none;" d="M356 248L357 249L356 248z"/>
<path style="fill:#5fa6d9; stroke:none;" d="M357 248L358 249L357 248M225 249L226 250L225 249M355 249L356 250L355 249M81 250L81 253L82 253L81 250M223 250L224 251L223 250M353 250L354 251L353 250M430 250L430 253L431 253L430 250M221 251L222 252L221 251M351 251L352 252L351 251M219 252L220 253L219 252M349 252L350 253L349 252z"/>
<path style="fill:#a8bcc9; stroke:none;" d="M81 253L81 257L82 257L81 253z"/>
<path style="fill:#5fa6d9; stroke:none;" d="M217 253L218 254L217 253M347 253L348 254L347 253z"/>
<path style="fill:#a8bcc9; stroke:none;" d="M430 253L430 257L431 257L430 253z"/>
<path style="fill:#5fa6d9; stroke:none;" d="M215 254L216 255L215 254M345 254L346 255L345 254M213 255L214 256L213 255M343 255L344 256L343 255M211 256L212 257L211 256M341 256L342 257L341 256M209 257L210 258L209 257M339 257L340 258L339 257M207 258L208 259L207 258M337 258L338 259L337 258M205 259L206 260L205 259M335 259L336 260L335 259M203 260L204 261L203 260M333 260L334 261L333 260M82 261L82 265L83 265L82 261M201 261L202 262L201 261M331 261L332 262L331 261M429 261L429 265L430 265L429 261M199 262L200 263L199 262z"/>
<path style="fill:#a8bcc9; stroke:none;" d="M329 262L330 263L329 262z"/>
<path style="fill:#5fa6d9; stroke:none;" d="M197 263L198 264L197 263z"/>
<path style="fill:#a8bcc9; stroke:none;" d="M327 263L328 264L327 263z"/>
<path style="fill:#5fa6d9; stroke:none;" d="M195 264L196 265L195 264z"/>
<path style="fill:#a8bcc9; stroke:none;" d="M325 264L326 265L325 264M82 265L82 268L83 268L82 265z"/>
<path style="fill:#5fa6d9; stroke:none;" d="M193 265L194 266L193 265z"/>
<path style="fill:#a8bcc9; stroke:none;" d="M323 265L324 266L323 265M429 265L429 268L430 268L429 265z"/>
<path style="fill:#5fa6d9; stroke:none;" d="M191 266L192 267L191 266z"/>
<path style="fill:#a8bcc9; stroke:none;" d="M321 266L322 267L321 266z"/>
<path style="fill:#5fa6d9; stroke:none;" d="M189 267L190 268L189 267z"/>
<path style="fill:#a8bcc9; stroke:none;" d="M319 267L320 268L319 267z"/>
<path style="fill:#5fa6d9; stroke:none;" d="M187 268L188 269L187 268z"/>
<path style="fill:#a8bcc9; stroke:none;" d="M317 268L318 269L317 268z"/>
<path style="fill:#5fa6d9; stroke:none;" d="M185 269L186 270L185 269z"/>
<path style="fill:#a8bcc9; stroke:none;" d="M315 269L316 270L315 269z"/>
<path style="fill:#5fa6d9; stroke:none;" d="M316 269L317 270L316 269M183 270L184 271L183 270z"/>
<path style="fill:#a8bcc9; stroke:none;" d="M313 270L314 271L313 270z"/>
<path style="fill:#5fa6d9; stroke:none;" d="M314 270L315 271L314 270M181 271L182 272L181 271z"/>
<path style="fill:#a8bcc9; stroke:none;" d="M311 271L312 272L311 271z"/>
<path style="fill:#5fa6d9; stroke:none;" d="M312 271L313 272L312 271M179 272L180 273L179 272z"/>
<path style="fill:#a8bcc9; stroke:none;" d="M309 272L310 273L309 272z"/>
<path style="fill:#5fa6d9; stroke:none;" d="M310 272L311 273L310 272M83 273L83 276L84 276L83 273M177 273L178 274L177 273z"/>
<path style="fill:#a8bcc9; stroke:none;" d="M307 273L308 274L307 273z"/>
<path style="fill:#5fa6d9; stroke:none;" d="M308 273L309 274L308 273M428 273L428 276L429 276L428 273M175 274L176 275L175 274z"/>
<path style="fill:#a8bcc9; stroke:none;" d="M305 274L306 275L305 274z"/>
<path style="fill:#5fa6d9; stroke:none;" d="M306 274L307 275L306 274M173 275L174 276L173 275z"/>
<path style="fill:#a8bcc9; stroke:none;" d="M303 275L304 276L303 275z"/>
<path style="fill:#5fa6d9; stroke:none;" d="M304 275L305 276L304 275z"/>
<path style="fill:#a8bcc9; stroke:none;" d="M83 276L83 280L84 280L83 276z"/>
<path style="fill:#5fa6d9; stroke:none;" d="M171 276L172 277L171 276z"/>
<path style="fill:#a8bcc9; stroke:none;" d="M301 276L302 277L301 276z"/>
<path style="fill:#5fa6d9; stroke:none;" d="M302 276L303 277L302 276z"/>
<path style="fill:#a8bcc9; stroke:none;" d="M428 276L428 280L429 280L428 276z"/>
<path style="fill:#5fa6d9; stroke:none;" d="M169 277L170 278L169 277M300 277L301 278L300 277M167 278L168 279L167 278M298 278L299 279L298 278M165 279L166 280L165 279M296 279L297 280L296 279M163 280L164 281L163 280M294 280L295 281L294 280M161 281L162 282L161 281M292 281L293 282L292 281M159 282L160 283L159 282M290 282L291 283L290 282M157 283L158 284L157 283M288 283L289 284L288 283M84 284L84 288L85 288L84 284M155 284L156 285L155 284M286 284L287 285L286 284M427 284L427 288L428 288L427 284M153 285L154 286L153 285M284 285L285 286L284 285M151 286L152 287L151 286M282 286L283 287L282 286M149 287L150 288L149 287M280 287L281 288L280 287z"/>
<path style="fill:#a8bcc9; stroke:none;" d="M84 288L84 292L85 292L84 288z"/>
<path style="fill:#5fa6d9; stroke:none;" d="M277 289L277 290L364 290L337 289L277 289z"/>
<path style="fill:#a8bcc9; stroke:none;" d="M427 288L427 292L428 292L427 288M276 289L277 290L276 289M148 293L148 296L149 296L148 293M363 293L363 297L364 297L363 293z"/>
<path style="fill:#5fa6d9; stroke:none;" d="M85 296L85 300L86 300L85 296M148 296L148 300L149 300L148 296M426 296L426 300L427 300L426 296M363 297L363 301L364 301L363 297z"/>
<path style="fill:#a8bcc9; stroke:none;" d="M85 300L85 303L86 303L85 300M426 300L426 303L427 303L426 300M149 305L149 308L150 308L149 305M362 305L362 308L363 308L362 305z"/>
<path style="fill:#5fa6d9; stroke:none;" d="M86 308L86 311L87 311L86 308M149 308L149 312L150 312L149 308M362 308L362 313L363 313L362 308M425 308L425 311L426 311L425 308z"/>
<path style="fill:#a8bcc9; stroke:none;" d="M86 311L86 315L87 315L86 311M425 311L425 315L426 315L425 311M150 317L150 320L151 320L150 317M361 317L361 320L362 320L361 317z"/>
<path style="fill:#5fa6d9; stroke:none;" d="M87 319L87 323L88 323L87 319M424 319L424 323L425 323L424 319M150 320L150 323L151 323L150 320M361 320L361 324L362 324L361 320z"/>
<path style="fill:#a8bcc9; stroke:none;" d="M87 323L87 326L88 326L87 323M424 323L424 326L425 326L424 323M151 328L151 332L152 332L151 328M360 329L360 332L361 332L360 329z"/>
<path style="fill:#5fa6d9; stroke:none;" d="M88 331L88 334L89 334L88 331M423 331L423 334L424 334L423 331M151 332L151 335L152 335L151 332M360 332L360 336L361 336L360 332z"/>
<path style="fill:#a8bcc9; stroke:none;" d="M88 334L88 338L89 338L88 334M423 334L423 338L424 338L423 334M152 337L152 338L311 338C298.593 332.794 276.515 337 263 337L152 337M311 338L312 339L311 338M359 341L359 344L360 344L359 341z"/>
<path style="fill:#5fa6d9; stroke:none;" d="M89 342L89 346L90 346L89 342M422 342L422 346L423 346L422 342M310 343L310 347L311 347L310 343M359 344L359 348L360 348L359 344z"/>
<path style="fill:#a8bcc9; stroke:none;" d="M89 346L89 350L90 350L89 346M422 346L422 350L423 350L422 346M310 347L310 350L311 350L310 347M358 352L358 356L359 356L358 352z"/>
<path style="fill:#5fa6d9; stroke:none;" d="M90 354L90 358L91 358L90 354M309 354L309 358L310 358L309 354M421 354L421 358L422 358L421 354M358 356L358 360L359 360L358 356z"/>
<path style="fill:#a8bcc9; stroke:none;" d="M90 358L90 361L91 361L90 358z"/>
<path style="fill:#5fa6d9; stroke:none;" d="M154 358L154 359L202 359C189.586 353.791 167.526 358 154 358z"/>
<path style="fill:#a8bcc9; stroke:none;" d="M309 358L309 361L310 361L309 358M421 358L421 361L422 361L421 358z"/>
<path style="fill:#5fa6d9; stroke:none;" d="M202.333 359.667L202.667 360.333L202.333 359.667z"/>
<path style="fill:#a8bcc9; stroke:none;" d="M202 361L202 368L203 368L202 361M154 364L154 367L155 367L154 364M357 364L357 368L358 368L357 364z"/>
<path style="fill:#5fa6d9; stroke:none;" d="M91 366L91 369L92 369L91 366M308 366L308 370L309 370L308 366M420 366L420 369L421 369L420 366M154 367L154 371L155 371L154 367M357 368L357 372L358 372L357 368z"/>
<path style="fill:#a8bcc9; stroke:none;" d="M91 369L91 373L92 373L91 369M420 369L420 373L421 373L420 369M308 370L308 373L309 373L308 370M155 376L155 379L156 379L155 376M356 376L356 379L357 379L356 376z"/>
<path style="fill:#5fa6d9; stroke:none;" d="M92 377L92 381L93 381L92 377M307 377L307 381L308 381L307 377M419 377L419 381L420 381L419 377M155 379L155 383L156 383L155 379M356 379L356 384L357 384L356 379M203 380L203 388L204 388L203 380z"/>
<path style="fill:#a8bcc9; stroke:none;" d="M92 381L92 384L93 384L92 381M307 381L307 384L308 384L307 381M419 381L419 384L420 384L419 381M156 388L156 391L157 391L156 388M203 388L203 395L204 395L203 388z"/>
<path style="fill:#5fa6d9; stroke:none;" d="M306 388L306 392L307 392L306 388z"/>
<path style="fill:#a8bcc9; stroke:none;" d="M355 388L355 391L356 391L355 388z"/>
<path style="fill:#5fa6d9; stroke:none;" d="M93 389L93 392L94 392L93 389M418 389L418 392L419 392L418 389M156 391L156 394L157 394L156 391M355 391L355 395L356 395L355 391z"/>
<path style="fill:#a8bcc9; stroke:none;" d="M93 392L93 396L94 396L93 392M306 392L306 395L307 395L306 392M418 392L418 396L419 396L418 392z"/>
<path style="fill:#5fa6d9; stroke:none;" d="M204 395L205 396L204 395z"/>
<path style="fill:#a8bcc9; stroke:none;" d="M207 396L208 397L207 396z"/>
<path style="fill:#5fa6d9; stroke:none;" d="M208 396L209 397L208 396M304.667 396.333L305.333 396.667L304.667 396.333z"/>
<path style="fill:#a8bcc9; stroke:none;" d="M211 397L212 398L211 397z"/>
<path style="fill:#5fa6d9; stroke:none;" d="M212 397L213 398L212 397M301 397L302 398L301 397z"/>
<path style="fill:#a8bcc9; stroke:none;" d="M302 397L303 398L302 397M214 398L215 399L214 398z"/>
<path style="fill:#5fa6d9; stroke:none;" d="M215 398L216 399L215 398M297 398L298 399L297 398z"/>
<path style="fill:#a8bcc9; stroke:none;" d="M298 398L299 399L298 398M157 399L157 403L158 403L157 399M218 399L219 400L218 399z"/>
<path style="fill:#5fa6d9; stroke:none;" d="M219 399L220 400L219 399M293 399L294 400L293 399z"/>
<path style="fill:#a8bcc9; stroke:none;" d="M294 399L295 400L294 399z"/>
<path style="fill:#5fa6d9; stroke:none;" d="M94 400L94 404L95 404L94 400z"/>
<path style="fill:#a8bcc9; stroke:none;" d="M221 400L222 401L221 400z"/>
<path style="fill:#5fa6d9; stroke:none;" d="M222 400L223 401L222 400M289.667 400.333L290.333 400.667L289.667 400.333z"/>
<path style="fill:#a8bcc9; stroke:none;" d="M291 400L292 401L291 400M354 400L354 403L355 403L354 400z"/>
<path style="fill:#5fa6d9; stroke:none;" d="M417 400L417 404L418 404L417 400z"/>
<path style="fill:#a8bcc9; stroke:none;" d="M225 401L226 402L225 401z"/>
<path style="fill:#5fa6d9; stroke:none;" d="M226 401L227 402L226 401M286 401L287 402L286 401z"/>
<path style="fill:#a8bcc9; stroke:none;" d="M287 401L288 402L287 401M228 402L229 403L228 402z"/>
<path style="fill:#5fa6d9; stroke:none;" d="M229 402L230 403L229 402M282 402L283 403L282 402z"/>
<path style="fill:#a8bcc9; stroke:none;" d="M283 402L284 403L283 402z"/>
<path style="fill:#5fa6d9; stroke:none;" d="M157 403L157 406L158 406L157 403z"/>
<path style="fill:#a8bcc9; stroke:none;" d="M232 403L233 404L232 403z"/>
<path style="fill:#5fa6d9; stroke:none;" d="M233 403L234 404L233 403M278.667 403.333L279.333 403.667L278.667 403.333z"/>
<path style="fill:#a8bcc9; stroke:none;" d="M280 403L281 404L280 403z"/>
<path style="fill:#5fa6d9; stroke:none;" d="M354 403L354 407L355 407L354 403z"/>
<path style="fill:#a8bcc9; stroke:none;" d="M94 404L94 408L95 408L94 404M236 404L237 405L236 404z"/>
<path style="fill:#5fa6d9; stroke:none;" d="M237 404L238 405L237 404M275 404L276 405L275 404z"/>
<path style="fill:#a8bcc9; stroke:none;" d="M276 404L277 405L276 404M417 404L417 408L418 408L417 404M239 405L240 406L239 405z"/>
<path style="fill:#5fa6d9; stroke:none;" d="M240 405L241 406L240 405M271 405L272 406L271 405z"/>
<path style="fill:#a8bcc9; stroke:none;" d="M272 405L273 406L272 405M243 406L244 407L243 406z"/>
<path style="fill:#5fa6d9; stroke:none;" d="M244 406L245 407L244 406M267.667 406.333L268.333 406.667L267.667 406.333z"/>
<path style="fill:#a8bcc9; stroke:none;" d="M269 406L270 407L269 406M246 407L247 408L246 407z"/>
<path style="fill:#5fa6d9; stroke:none;" d="M247 407L248 408L247 407M264 407L265 408L264 407z"/>
<path style="fill:#a8bcc9; stroke:none;" d="M265 407L266 408L265 407M250 408L251 409L250 408z"/>
<path style="fill:#5fa6d9; stroke:none;" d="M251 408L252 409L251 408M260 408L261 409L260 408z"/>
<path style="fill:#a8bcc9; stroke:none;" d="M261 408L262 409L261 408M253 409L254 410L253 409z"/>
<path style="fill:#5fa6d9; stroke:none;" d="M254 409L255 410L254 409M256 409L257 410L256 409z"/>
<path style="fill:#a8bcc9; stroke:none;" d="M257 409L258 410L257 409M158 411L158 415L159 415L158 411z"/>
<path style="fill:#5fa6d9; stroke:none;" d="M95 412L95 416L96 416L95 412z"/>
<path style="fill:#a8bcc9; stroke:none;" d="M353 412L353 415L354 415L353 412z"/>
<path style="fill:#5fa6d9; stroke:none;" d="M416 412L416 416L417 416L416 412M158 415L158 418L159 418L158 415M353 415L353 419L354 419L353 415z"/>
<path style="fill:#a8bcc9; stroke:none;" d="M95 416L95 419L96 419L95 416M416 416L416 419L417 419L416 416M159 423L159 426L160 426L159 423z"/>
<path style="fill:#5fa6d9; stroke:none;" d="M96 424L96 427L97 427L96 424z"/>
<path style="fill:#a8bcc9; stroke:none;" d="M352 424L352 427L353 427L352 424z"/>
<path style="fill:#5fa6d9; stroke:none;" d="M415 424L415 427L416 427L415 424M159 426L159 430L160 430L159 426z"/>
<path style="fill:#a8bcc9; stroke:none;" d="M96 427L96 431L97 431L96 427z"/>
<path style="fill:#5fa6d9; stroke:none;" d="M352 427L352 431L353 431L352 427z"/>
<path style="fill:#a8bcc9; stroke:none;" d="M415 427L415 431L416 431L415 427z"/>
<path style="fill:#5fa6d9; stroke:none;" d="M161 431L162 432L161 431z"/>
<path style="fill:#a8bcc9; stroke:none;" d="M162 431L163 432L162 431M349 431L350 432L349 431z"/>
<path style="fill:#5fa6d9; stroke:none;" d="M350 431L351 432L350 431M165 432L166 433L165 432z"/>
<path style="fill:#a8bcc9; stroke:none;" d="M166 432L167 433L166 432M345 432L346 433L345 432z"/>
<path style="fill:#5fa6d9; stroke:none;" d="M346.667 432.333L347.333 432.667L346.667 432.333M168 433L169 434L168 433z"/>
<path style="fill:#a8bcc9; stroke:none;" d="M169 433L170 434L169 433M342 433L343 434L342 433z"/>
<path style="fill:#5fa6d9; stroke:none;" d="M343 433L344 434L343 433M172 434L173 435L172 434z"/>
<path style="fill:#a8bcc9; stroke:none;" d="M173 434L174 435L173 434M338 434L339 435L338 434z"/>
<path style="fill:#5fa6d9; stroke:none;" d="M339.667 434.333L340.333 434.667L339.667 434.333M97 435L97 439L98 439L97 435M175 435L176 436L175 435z"/>
<path style="fill:#a8bcc9; stroke:none;" d="M176 435L177 436L176 435M335 435L336 436L335 435z"/>
<path style="fill:#5fa6d9; stroke:none;" d="M336 435L337 436L336 435M414 435L414 439L415 439L414 435M179 436L180 437L179 436z"/>
<path style="fill:#a8bcc9; stroke:none;" d="M180 436L181 437L180 436M331 436L332 437L331 436z"/>
<path style="fill:#5fa6d9; stroke:none;" d="M332 436L333 437L332 436M182 437L183 438L182 437z"/>
<path style="fill:#a8bcc9; stroke:none;" d="M183 437L184 438L183 437M328 437L329 438L328 437z"/>
<path style="fill:#5fa6d9; stroke:none;" d="M329 437L330 438L329 437M186 438L187 439L186 438z"/>
<path style="fill:#a8bcc9; stroke:none;" d="M187 438L188 439L187 438M324 438L325 439L324 438z"/>
<path style="fill:#5fa6d9; stroke:none;" d="M325 438L326 439L325 438z"/>
<path style="fill:#a8bcc9; stroke:none;" d="M97 439L97 442L98 442L97 439z"/>
<path style="fill:#5fa6d9; stroke:none;" d="M189.667 439.333L190.333 439.667L189.667 439.333z"/>
<path style="fill:#a8bcc9; stroke:none;" d="M191 439L192 440L191 439M321 439L322 440L321 439z"/>
<path style="fill:#5fa6d9; stroke:none;" d="M322 439L323 440L322 439z"/>
<path style="fill:#a8bcc9; stroke:none;" d="M414 439L414 442L415 442L414 439z"/>
<path style="fill:#5fa6d9; stroke:none;" d="M193 440L194 441L193 440z"/>
<path style="fill:#a8bcc9; stroke:none;" d="M194 440L195 441L194 440M317 440L318 441L317 440z"/>
<path style="fill:#5fa6d9; stroke:none;" d="M318 440L319 441L318 440M197 441L198 442L197 441z"/>
<path style="fill:#a8bcc9; stroke:none;" d="M198 441L199 442L198 441M314 441L315 442L314 441z"/>
<path style="fill:#5fa6d9; stroke:none;" d="M315 441L316 442L315 441M200 442L201 443L200 442z"/>
<path style="fill:#a8bcc9; stroke:none;" d="M201 442L202 443L201 442M310 442L311 443L310 442z"/>
<path style="fill:#5fa6d9; stroke:none;" d="M311 442L312 443L311 442M204 443L205 444L204 443z"/>
<path style="fill:#a8bcc9; stroke:none;" d="M205 443L206 444L205 443M306 443L307 444L306 443z"/>
<path style="fill:#5fa6d9; stroke:none;" d="M307.667 443.333L308.333 443.667L307.667 443.333M207 444L208 445L207 444z"/>
<path style="fill:#a8bcc9; stroke:none;" d="M208 444L209 445L208 444M303 444L304 445L303 444z"/>
<path style="fill:#5fa6d9; stroke:none;" d="M304 444L305 445L304 444M211 445L212 446L211 445z"/>
<path style="fill:#a8bcc9; stroke:none;" d="M212 445L213 446L212 445M299 445L300 446L299 445z"/>
<path style="fill:#5fa6d9; stroke:none;" d="M300.667 445.333L301.333 445.667L300.667 445.333M214 446L215 447L214 446z"/>
<path style="fill:#a8bcc9; stroke:none;" d="M215 446L216 447L215 446M296 446L297 447L296 446z"/>
<path style="fill:#5fa6d9; stroke:none;" d="M297 446L298 447L297 446M98 447L98 450L99 450L98 447M218 447L219 448L218 447z"/>
<path style="fill:#a8bcc9; stroke:none;" d="M219 447L220 448L219 447M292 447L293 448L292 447z"/>
<path style="fill:#5fa6d9; stroke:none;" d="M293.667 447.333L294.333 447.667L293.667 447.333M413 447L413 450L414 450L413 447M221 448L222 449L221 448z"/>
<path style="fill:#a8bcc9; stroke:none;" d="M222 448L223 449L222 448M289 448L290 449L289 448z"/>
<path style="fill:#5fa6d9; stroke:none;" d="M290 448L291 449L290 448M225 449L226 450L225 449z"/>
<path style="fill:#a8bcc9; stroke:none;" d="M226 449L227 450L226 449M285 449L286 450L285 449z"/>
<path style="fill:#5fa6d9; stroke:none;" d="M286 449L287 450L286 449z"/>
<path style="fill:#a8bcc9; stroke:none;" d="M98 450L98 454L99 454L98 450z"/>
<path style="fill:#5fa6d9; stroke:none;" d="M228 450L229 451L228 450z"/>
<path style="fill:#a8bcc9; stroke:none;" d="M229 450L230 451L229 450M282 450L283 451L282 450z"/>
<path style="fill:#5fa6d9; stroke:none;" d="M283 450L284 451L283 450z"/>
<path style="fill:#a8bcc9; stroke:none;" d="M413 450L413 454L414 454L413 450z"/>
<path style="fill:#5fa6d9; stroke:none;" d="M232 451L233 452L232 451z"/>
<path style="fill:#a8bcc9; stroke:none;" d="M233 451L234 452L233 451M278 451L279 452L278 451z"/>
<path style="fill:#5fa6d9; stroke:none;" d="M279 451L280 452L279 451M235.667 452.333L236.333 452.667L235.667 452.333z"/>
<path style="fill:#a8bcc9; stroke:none;" d="M237 452L238 453L237 452M275 452L276 453L275 452z"/>
<path style="fill:#5fa6d9; stroke:none;" d="M276 452L277 453L276 452M239 453L240 454L239 453z"/>
<path style="fill:#a8bcc9; stroke:none;" d="M240 453L241 454L240 453M271 453L272 454L271 453z"/>
<path style="fill:#5fa6d9; stroke:none;" d="M272 453L273 454L272 453M243 454L244 455L243 454z"/>
<path style="fill:#a8bcc9; stroke:none;" d="M244 454L245 455L244 454M268 454L269 455L268 454z"/>
<path style="fill:#5fa6d9; stroke:none;" d="M269 454L270 455L269 454M246 455L247 456L246 455z"/>
<path style="fill:#a8bcc9; stroke:none;" d="M247 455L248 456L247 455M264 455L265 456L264 455z"/>
<path style="fill:#5fa6d9; stroke:none;" d="M265 455L266 456L265 455M250 456L251 457L250 456z"/>
<path style="fill:#a8bcc9; stroke:none;" d="M251 456L252 457L251 456M260 456L261 457L260 456z"/>
<path style="fill:#5fa6d9; stroke:none;" d="M261.667 456.333L262.333 456.667L261.667 456.333M253 457L254 458L253 457z"/>
<path style="fill:#a8bcc9; stroke:none;" d="M254 457L255 458L254 457M257 457L258 458L257 457z"/>
<path style="fill:#5fa6d9; stroke:none;" d="M258 457L259 458L258 457M99 458L100 459L99 458M412 458L413 459L412 458M100 459L101 460L100 459M411 459L412 460L411 459M101 460L102 461L101 460M410 460L411 461L410 460M102.667 461.333L103.333 461.667L102.667 461.333M408.667 461.333L409.333 461.667L408.667 461.333M104 462L105 463L104 462M407 462L408 463L407 462M105.667 463.333L106.333 463.667L105.667 463.333M405.667 463.333L406.333 463.667L405.667 463.333M107 464L108 465L107 464M404 464L405 465L404 464M108 465L109 466L108 465M403 465L404 466L403 465M109.667 466.333L110.333 466.667L109.667 466.333M401.667 466.333L402.333 466.667L401.667 466.333M111 467L112 468L111 467M400 467L401 468L400 467M112.667 468.333L113.333 468.667L112.667 468.333M398.667 468.333L399.333 468.667L398.667 468.333M114 469L115 470L114 469M397 469L398 470L397 469M115.667 470.333L116.333 470.667L115.667 470.333M395.667 470.333L396.333 470.667L395.667 470.333M117 471L118 472L117 471M394 471L395 472L394 471M118.667 472.333L119.333 472.667L118.667 472.333M392.667 472.333L393.333 472.667L392.667 472.333M120.667 473.333L121.333 473.667L120.667 473.333M390.667 473.333L391.333 473.667L390.667 473.333M122 474L123 475L122 474M389 474L390 475L389 474M123.667 475.333L124.333 475.667L123.667 475.333M387.667 475.333L388.333 475.667L387.667 475.333M125.667 476.333L126.333 476.667L125.667 476.333M385.667 476.333L386.333 476.667L385.667 476.333M127 477L128 478L127 477M384 477L385 478L384 477M128.667 478.333L129.333 478.667L128.667 478.333M382.667 478.333L383.333 478.667L382.667 478.333M130.667 479.333L131.333 479.667L130.667 479.333M380.667 479.333L381.333 479.667L380.667 479.333M132 480L133 481L132 480M379 480L380 481L379 480M133.667 481.333L134.333 481.667L133.667 481.333M377.667 481.333L378.333 481.667L377.667 481.333M135.667 482.333L136.333 482.667L135.667 482.333M375.667 482.333L376.333 482.667L375.667 482.333M137.667 483.333L138.333 483.667L137.667 483.333M373.667 483.333L374.333 483.667L373.667 483.333M140 484L141 485L140 484M371 484L372 485L371 484M142 485L143 486L142 485M369 485L370 486L369 485M144 486L145 487L144 486M367 486L368 487L367 486M146 487L147 488L146 487M365 487L366 488L365 487M148 488L149 489L148 488M363 488L364 489L363 488M150 489L151 490L150 489M361 489L362 490L361 489M152.667 490.333L153.333 490.667L152.667 490.333M358.667 490.333L359.333 490.667L358.667 490.333M154.667 491.333L155.333 491.667L154.667 491.333M356.667 491.333L357.333 491.667L356.667 491.333M157.667 492.333L158.333 492.667L157.667 492.333M353.667 492.333L354.333 492.667L353.667 492.333M159.667 493.333L160.333 493.667L159.667 493.333M351.667 493.333L352.333 493.667L351.667 493.333M162.667 494.333L163.333 494.667L162.667 494.333M348.667 494.333L349.333 494.667L348.667 494.333M164.667 495.333L165.333 495.667L164.667 495.333M346.667 495.333L347.333 495.667L346.667 495.333M167.667 496.333L168.333 496.667L167.667 496.333M343.667 496.333L344.333 496.667L343.667 496.333M169.667 497.333L170.333 497.667L169.667 497.333M341.667 497.333L342.333 497.667L341.667 497.333M172 498L172 499L175 499L172 498M337 498L337 499L340 499L337 498M175 499L175 500L178 500L175 499M334 499L334 500L337 500L334 499M179.667 500.333L180.333 500.667L179.667 500.333M331.667 500.333L332.333 500.667L331.667 500.333M182 501L182 502L185 502L182 501M327 501L327 502L330 502L327 501M185 502L185 503L188 503L185 502M324 502L324 503L327 503L324 502M189.667 503.333L190.333 503.667L189.667 503.333M321.667 503.333L322.333 503.667L321.667 503.333M192 504L192 505L196 505L192 504M316 504L316 505L320 505L316 504M197 505L197 506L200 506L197 505M312 505L312 506L315 506L312 505M201 506L201 507L205 507L201 506M307 506L307 507L311 507L307 506M206 507L206 508L210 508L206 507M302 507L302 508L306 508L302 507M211 508L211 509L216 509L211 508M296 508L296 509L301 509L296 508M218 509L218 510L223 510L218 509M289 509L289 510L294 510L289 509M225 510L225 511L231 511L225 510M281 510L281 511L287 511L281 510M233 511L233 512L249 512L233 511M263 511L263 512L279 512L263 511z"/>
</svg>
