<?xml version="1.0" standalone="no"?>
<!DOCTYPE svg PUBLIC "-//W3C//DTD SVG 20010904//EN"
 "http://www.w3.org/TR/2001/REC-SVG-20010904/DTD/svg10.dtd">
<svg version="1.0" xmlns="http://www.w3.org/2000/svg"
 width="1600.000000pt" height="1600.000000pt" viewBox="0 0 1600.000000 1600.000000"
 preserveAspectRatio="xMidYMid meet">

<g transform="translate(0.000000,1600.000000) scale(0.100000,-0.100000)"
fill="#000000" stroke="none">
<path d="M4311 13988 c-333 -42 -651 -204 -893 -456 -198 -207 -325 -448 -390
-742 l-23 -105 0 -4685 0 -4685 22 -101 c71 -317 196 -549 417 -770 219 -219
448 -343 765 -416 l96 -22 2348 -3 2347 -3 0 500 0 500 -2277 0 c-2505 0
-2342 -4 -2463 61 -74 39 -160 125 -199 199 -66 123 -61 -274 -61 4740 0 5014
-5 4617 61 4740 39 74 125 160 199 199 123 65 -172 61 3740 61 3912 0 3617 4
3740 -61 74 -39 160 -125 199 -199 65 -122 61 93 61 -2962 l0 -2778 500 0 500
0 -3 2848 -2 2847 -23 96 c-73 316 -198 547 -416 765 -219 219 -447 343 -765
416 l-96 23 -3655 1 c-2209 1 -3684 -2 -3729 -8z"/>
<path d="M6827 11985 c-499 -95 -850 -533 -824 -1030 14 -254 115 -484 292
-660 85 -86 168 -144 289 -201 90 -43 233 -84 290 -84 55 0 19 -11 -70 -20
-306 -34 -588 -128 -842 -283 -141 -86 -245 -169 -373 -296 -332 -331 -527
-741 -579 -1216 -5 -49 -10 -114 -10 -142 l0 -53 2000 0 2000 0 0 44 c0 81
-21 250 -45 369 -124 604 -547 1135 -1116 1401 -189 88 -439 157 -624 172 -87
7 -144 22 -90 23 105 3 317 84 446 172 82 55 193 166 248 248 63 92 127 234
153 337 30 119 32 331 4 449 -86 373 -371 664 -741 756 -107 27 -304 34 -408
14z"/>
<path d="M10000 10500 l0 -500 500 0 500 0 0 500 0 500 -500 0 -500 0 0 -500z"/>
<path d="M10000 8500 l0 -500 500 0 500 0 0 500 0 500 -500 0 -500 0 0 -500z"/>
<path d="M5000 6500 l0 -500 3000 0 3000 0 0 500 0 500 -3000 0 -3000 0 0
-500z"/>
<path d="M12000 4500 l0 -1500 -1002 0 -1003 0 1253 -1252 1252 -1253 1252
1253 1253 1252 -1003 0 -1002 0 0 1500 0 1500 -500 0 -500 0 0 -1500z"/>
<path d="M5000 4500 l0 -500 3000 0 3000 0 0 500 0 500 -3000 0 -3000 0 0
-500z"/>
</g>
</svg>
