<svg id="svg" version="1.1" xmlns="http://www.w3.org/2000/svg" xmlns:xlink="http://www.w3.org/1999/xlink" width="400" height="400" viewBox="0, 0, 400,400"><g id="svgg"><path id="path0" d="M234.875 79.127 C 201.580 82.153,179.092 100.904,171.635 131.857 C 169.249 141.759,169.187 142.772,169.070 173.186 L 168.968 199.998 143.671 200.061 L 118.375 200.125 118.311 228.813 L 118.248 257.500 143.624 257.500 L 169.000 257.500 169.000 327.235 L 169.000 396.969 170.188 397.119 C 170.841 397.201,172.950 397.484,174.875 397.747 C 183.884 398.979,186.509 399.122,200.000 399.124 C 210.563 399.125,213.638 399.045,217.125 398.682 C 221.850 398.190,228.902 397.303,230.250 397.032 L 231.125 396.856 231.188 327.178 L 231.251 257.500 254.359 257.500 C 276.152 257.500,277.473 257.475,277.590 257.063 C 277.658 256.822,277.774 256.175,277.849 255.625 C 277.924 255.075,278.323 252.431,278.737 249.750 C 279.151 247.069,279.999 241.500,280.622 237.375 C 281.245 233.250,282.088 227.738,282.497 225.125 C 283.324 219.833,285.881 203.036,286.140 201.188 L 286.307 200.000 258.778 200.000 L 231.250 200.000 231.251 179.313 C 231.253 162.558,231.322 158.173,231.614 156.250 C 233.440 144.224,240.496 136.086,251.752 133.022 C 256.335 131.774,257.699 131.684,273.689 131.568 L 288.752 131.459 288.689 107.042 L 288.625 82.625 286.750 82.312 C 270.153 79.537,246.405 78.079,234.875 79.127 " stroke="none" fill="#fbfbfb" fill-rule="evenodd"></path><path id="path1" d="M187.480 1.242 C 184.665 1.435,183.664 1.524,178.789 2.016 C 177.505 2.145,176.360 2.193,176.244 2.121 C 176.129 2.050,175.964 2.106,175.878 2.246 C 175.791 2.386,175.298 2.500,174.781 2.500 C 174.265 2.500,173.231 2.608,172.483 2.740 C 171.736 2.872,170.619 3.046,170.000 3.126 C 169.381 3.207,167.188 3.566,165.125 3.924 C 163.063 4.282,161.206 4.599,161.000 4.628 C 160.794 4.657,160.456 4.746,160.250 4.826 C 160.044 4.905,159.200 5.099,158.375 5.257 C 157.550 5.414,155.019 5.996,152.750 6.550 C 150.481 7.104,148.512 7.582,148.375 7.612 C 148.238 7.641,147.619 7.809,147.001 7.984 C 146.383 8.159,145.708 8.336,145.501 8.376 C 145.294 8.416,144.169 8.751,143.000 9.119 C 126.611 14.285,113.563 19.917,100.806 27.332 C 99.263 28.229,97.998 28.886,97.996 28.794 C 97.994 28.701,97.910 28.743,97.809 28.886 C 97.708 29.030,96.556 29.812,95.250 30.624 C 93.115 31.950,88.116 35.265,85.314 37.210 C 81.139 40.110,74.862 45.025,70.278 48.984 C 68.437 50.574,66.524 52.210,66.028 52.620 C 64.853 53.588,53.588 64.853,52.620 66.028 C 52.210 66.524,50.574 68.437,48.984 70.278 C 45.025 74.862,40.110 81.139,37.210 85.314 C 35.265 88.116,31.950 93.115,30.624 95.250 C 29.812 96.556,29.030 97.708,28.886 97.809 C 28.743 97.910,28.701 97.994,28.794 97.996 C 28.886 97.998,28.229 99.263,27.332 100.806 C 19.917 113.563,14.285 126.611,9.119 143.000 C 8.751 144.169,8.416 145.294,8.376 145.501 C 8.336 145.708,8.159 146.383,7.984 147.001 C 7.809 147.619,7.641 148.238,7.612 148.375 C 7.582 148.512,7.104 150.481,6.550 152.750 C 5.996 155.019,5.414 157.550,5.257 158.375 C 5.099 159.200,4.905 160.044,4.826 160.250 C 4.746 160.456,4.657 160.794,4.628 161.000 C 4.599 161.206,4.282 163.063,3.924 165.125 C 3.566 167.188,3.207 169.381,3.126 170.000 C 3.046 170.619,2.872 171.736,2.740 172.483 C 2.608 173.231,2.500 174.265,2.500 174.781 C 2.500 175.298,2.386 175.791,2.246 175.878 C 2.106 175.964,2.050 176.128,2.121 176.243 C 2.233 176.425,1.971 179.816,1.636 182.529 C 1.025 187.465,0.803 211.698,1.345 214.250 C 1.418 214.594,1.533 215.775,1.601 216.875 C 1.972 222.921,3.598 233.910,5.279 241.733 C 7.166 250.512,7.997 253.593,10.797 262.195 C 11.347 263.884,11.825 265.402,11.860 265.570 C 11.895 265.738,12.063 266.212,12.234 266.625 C 12.405 267.038,12.915 268.387,13.368 269.625 C 13.821 270.863,14.884 273.563,15.731 275.625 C 16.578 277.688,17.295 279.488,17.323 279.625 C 17.352 279.762,17.443 279.931,17.525 280.000 C 17.674 280.124,19.861 285.010,19.875 285.250 C 19.879 285.319,19.986 285.538,20.112 285.738 C 20.238 285.937,21.292 287.962,22.454 290.238 C 26.725 298.602,32.273 307.832,37.102 314.608 C 48.769 330.979,62.344 345.229,77.546 357.064 C 78.877 358.101,80.115 359.076,80.296 359.232 C 85.277 363.508,101.549 373.532,111.625 378.531 C 116.483 380.941,122.319 383.544,126.493 385.160 C 127.390 385.508,129.081 386.165,130.250 386.621 C 133.149 387.751,144.089 391.382,145.375 391.642 C 145.512 391.669,146.131 391.837,146.750 392.013 C 147.369 392.190,147.988 392.362,148.125 392.395 C 155.775 394.258,162.221 395.674,165.625 396.238 C 166.588 396.398,167.628 396.591,167.938 396.666 L 168.500 396.804 168.500 327.403 L 168.500 258.002 143.313 257.939 L 118.125 257.875 118.056 229.250 C 118.019 213.506,118.049 200.372,118.124 200.063 L 118.260 199.500 143.380 199.500 L 168.500 199.500 168.500 174.875 C 168.500 161.331,168.592 150.250,168.705 150.250 C 168.818 150.250,168.859 149.278,168.797 148.090 C 168.733 146.873,168.780 145.989,168.904 146.065 C 169.026 146.140,169.145 145.230,169.170 144.044 C 169.194 142.858,169.308 141.856,169.421 141.818 C 169.535 141.780,169.588 141.243,169.539 140.624 C 169.490 140.006,169.554 139.500,169.682 139.500 C 169.809 139.500,169.862 139.147,169.798 138.714 C 169.711 138.118,169.761 137.977,170.005 138.128 C 170.210 138.255,170.266 138.228,170.159 138.054 C 169.932 137.688,170.513 134.250,170.801 134.250 C 170.927 134.250,170.961 134.140,170.878 134.005 C 170.622 133.591,172.768 125.601,173.057 125.891 C 173.145 125.978,173.154 125.813,173.079 125.525 C 173.003 125.236,173.057 125.000,173.197 125.000 C 173.338 125.000,173.390 124.757,173.312 124.461 C 173.207 124.059,173.255 123.974,173.499 124.125 C 173.714 124.257,173.767 124.230,173.653 124.045 C 173.465 123.740,174.687 120.429,175.039 120.291 C 175.157 120.245,175.194 120.112,175.122 119.995 C 174.930 119.685,178.200 113.000,178.543 113.000 C 178.703 113.000,178.763 112.929,178.677 112.843 C 178.044 112.210,186.966 99.841,187.624 100.438 C 187.737 100.541,187.761 100.504,187.677 100.356 C 187.476 100.001,191.082 96.428,191.388 96.680 C 191.519 96.787,191.549 96.780,191.456 96.664 C 191.262 96.423,192.974 94.839,193.314 94.944 C 193.437 94.981,193.484 94.925,193.420 94.819 C 193.274 94.579,196.694 91.917,197.148 91.917 C 197.330 91.917,197.436 91.848,197.384 91.765 C 197.259 91.563,199.986 89.667,200.402 89.667 C 200.581 89.667,200.678 89.586,200.617 89.487 C 200.494 89.289,202.004 88.593,202.331 88.697 C 202.444 88.733,202.454 88.628,202.353 88.464 C 202.222 88.253,202.307 88.218,202.639 88.346 C 202.898 88.445,203.029 88.446,202.930 88.347 C 202.678 88.095,205.718 86.451,206.053 86.658 C 206.230 86.767,206.255 86.710,206.123 86.496 C 205.973 86.254,206.033 86.209,206.347 86.330 C 206.583 86.420,206.718 86.400,206.646 86.284 C 206.472 86.003,209.488 84.716,209.844 84.920 C 209.999 85.008,210.039 84.985,209.933 84.869 C 209.715 84.630,213.971 82.953,214.292 83.151 C 214.407 83.222,214.500 83.179,214.500 83.057 C 214.500 82.784,216.251 82.221,216.541 82.400 C 216.656 82.471,216.750 82.397,216.750 82.236 C 216.750 82.065,216.959 81.996,217.250 82.073 C 217.526 82.144,217.700 82.122,217.638 82.022 C 217.472 81.753,220.912 80.916,221.270 81.138 C 221.453 81.250,221.513 81.224,221.419 81.072 C 221.221 80.750,224.080 80.116,224.515 80.384 C 224.692 80.494,224.764 80.475,224.681 80.341 C 224.515 80.072,228.381 79.397,228.757 79.629 C 228.891 79.712,229.000 79.684,229.000 79.568 C 229.000 79.269,236.650 78.405,237.938 78.558 C 238.522 78.628,239.000 78.587,239.000 78.467 C 239.000 78.348,241.644 78.250,244.875 78.250 C 248.731 78.250,250.750 78.338,250.750 78.507 C 250.750 78.674,251.320 78.706,252.372 78.598 C 254.245 78.406,266.500 79.248,266.500 79.569 C 266.500 79.685,266.613 79.710,266.752 79.624 C 267.041 79.445,273.750 80.036,273.750 80.240 C 273.750 80.314,274.312 80.336,275.000 80.288 C 275.687 80.241,276.250 80.298,276.250 80.415 C 276.250 80.533,276.771 80.587,277.407 80.537 C 278.043 80.486,278.505 80.541,278.434 80.660 C 278.362 80.778,279.163 80.908,280.214 80.948 C 281.265 80.989,282.163 81.130,282.209 81.262 C 282.255 81.395,282.398 81.438,282.526 81.359 C 282.838 81.166,285.523 81.511,285.390 81.726 C 285.332 81.819,285.686 81.849,286.177 81.791 C 286.766 81.723,287.012 81.778,286.904 81.954 C 286.793 82.132,287.026 82.174,287.607 82.080 C 289.368 81.794,289.250 79.996,289.250 107.077 C 289.250 127.412,289.193 131.486,288.907 131.723 C 288.661 131.927,284.616 132.020,274.595 132.049 C 256.827 132.102,257.500 132.092,257.500 132.313 C 257.500 132.416,257.231 132.500,256.903 132.500 C 256.574 132.500,255.196 132.735,253.840 133.023 C 252.484 133.310,251.206 133.563,251.000 133.585 C 250.794 133.607,250.569 133.691,250.500 133.773 C 250.270 134.045,247.940 134.743,247.719 134.606 C 247.598 134.531,247.500 134.602,247.500 134.762 C 247.500 134.935,247.325 134.986,247.070 134.889 C 246.834 134.798,246.723 134.806,246.823 134.907 C 247.012 135.095,244.120 136.790,243.562 136.818 C 243.391 136.826,243.301 136.884,243.363 136.946 C 243.425 137.008,242.834 137.536,242.050 138.119 C 241.266 138.702,240.356 139.473,240.026 139.832 C 239.697 140.191,239.303 140.414,239.151 140.327 C 238.999 140.241,238.952 140.256,239.047 140.361 C 239.141 140.466,238.613 141.285,237.873 142.182 C 237.134 143.079,236.216 144.409,235.835 145.138 C 235.453 145.866,235.036 146.397,234.907 146.318 C 234.778 146.238,234.751 146.299,234.847 146.454 C 235.003 146.707,234.410 148.187,234.028 148.500 C 233.944 148.569,233.872 148.738,233.868 148.875 C 233.864 149.012,233.555 150.098,233.181 151.286 C 232.806 152.475,232.500 153.628,232.500 153.849 C 232.500 154.069,232.416 154.250,232.313 154.250 C 232.209 154.250,232.120 154.616,232.113 155.063 C 232.107 155.509,231.967 156.887,231.802 158.125 C 231.590 159.713,231.501 166.131,231.501 179.938 L 231.500 199.500 258.844 199.500 C 281.201 199.500,286.239 199.560,286.463 199.830 C 286.810 200.248,286.544 202.807,286.177 202.580 C 286.026 202.487,286.000 202.548,286.112 202.729 C 286.357 203.126,285.740 208.000,285.445 208.000 C 285.321 208.000,285.285 208.104,285.364 208.232 C 285.539 208.515,284.950 213.000,284.738 213.000 C 284.655 213.000,284.638 213.353,284.702 213.786 C 284.765 214.218,284.718 214.511,284.596 214.437 C 284.474 214.363,284.343 215.050,284.303 215.964 C 284.263 216.878,284.122 217.663,283.989 217.709 C 283.856 217.755,283.814 217.902,283.897 218.035 C 284.035 218.259,283.768 220.143,282.852 225.394 C 282.658 226.505,282.500 227.715,282.500 228.082 C 282.500 228.449,282.381 228.750,282.235 228.750 C 282.090 228.750,282.039 228.861,282.123 228.997 C 282.321 229.317,281.989 232.273,281.771 232.138 C 281.679 232.081,281.651 232.436,281.709 232.927 C 281.769 233.448,281.715 233.758,281.577 233.672 C 281.441 233.588,281.386 233.838,281.448 234.260 C 281.507 234.664,281.469 235.192,281.363 235.434 C 281.257 235.677,281.197 235.986,281.230 236.123 C 281.326 236.518,280.675 240.250,280.511 240.250 C 280.429 240.250,280.405 240.700,280.457 241.250 C 280.510 241.800,280.456 242.250,280.339 242.250 C 280.221 242.250,280.114 242.616,280.102 243.063 C 280.058 244.575,279.680 247.000,279.488 247.000 C 279.383 247.000,279.342 247.197,279.398 247.438 C 279.454 247.678,279.132 250.125,278.684 252.875 L 277.869 257.875 254.684 257.939 L 231.500 258.003 231.500 327.376 C 231.500 365.532,231.541 396.750,231.591 396.750 C 231.641 396.750,232.284 396.636,233.021 396.496 C 233.758 396.356,234.757 396.188,235.243 396.123 C 236.181 395.996,238.744 395.467,243.625 394.394 C 255.244 391.838,270.447 386.872,279.610 382.640 C 280.669 382.151,281.575 381.750,281.623 381.750 C 281.792 381.750,287.663 378.945,290.375 377.568 C 311.171 367.014,332.545 350.679,347.382 334.000 C 348.177 333.106,349.233 331.925,349.728 331.375 C 355.291 325.198,362.835 315.190,367.727 307.500 C 368.471 306.331,369.437 304.813,369.874 304.125 C 373.042 299.145,378.086 289.653,381.167 282.875 C 382.355 280.262,383.410 277.956,383.511 277.750 C 383.812 277.141,384.328 275.895,384.392 275.625 C 384.425 275.488,384.984 274.025,385.635 272.375 C 388.001 266.379,392.548 252.291,393.139 249.125 C 393.191 248.850,393.344 248.175,393.481 247.625 C 393.857 246.103,395.171 240.112,395.590 238.000 C 396.001 235.932,396.306 234.136,396.884 230.375 C 397.095 229.000,397.311 227.594,397.364 227.250 C 399.133 215.745,399.612 198.635,398.575 184.000 C 398.280 179.848,397.232 171.482,396.351 166.250 C 395.854 163.300,393.069 150.350,392.749 149.500 C 392.619 149.156,392.464 148.594,392.403 148.250 C 392.342 147.906,391.877 146.275,391.368 144.625 C 390.859 142.975,390.334 141.231,390.202 140.750 C 388.786 135.610,384.350 124.023,381.220 117.288 C 380.687 116.140,380.250 115.155,380.250 115.099 C 380.250 114.936,376.883 108.188,376.459 107.500 C 376.247 107.156,375.083 105.075,373.874 102.875 C 370.412 96.579,364.210 86.917,360.519 82.070 C 359.705 81.000,358.397 79.284,357.614 78.256 C 347.771 65.339,334.136 51.816,320.364 41.311 C 319.003 40.273,315.375 37.633,314.307 36.903 C 313.725 36.507,313.250 36.066,313.250 35.924 C 313.250 35.783,313.184 35.733,313.102 35.814 C 313.021 35.896,311.474 34.975,309.665 33.769 C 303.487 29.652,297.421 26.121,290.155 22.411 C 287.833 21.226,285.808 20.152,285.655 20.024 C 285.501 19.897,285.286 19.793,285.177 19.794 C 284.909 19.796,280.157 17.714,280.000 17.525 C 279.931 17.443,279.762 17.352,279.625 17.323 C 279.488 17.295,277.688 16.578,275.625 15.731 C 273.563 14.884,270.863 13.821,269.625 13.368 C 268.387 12.915,267.038 12.414,266.625 12.255 C 266.212 12.095,265.819 11.956,265.750 11.946 C 265.681 11.936,264.837 11.657,263.875 11.326 C 251.614 7.110,237.052 3.845,223.375 2.244 C 220.900 1.954,217.975 1.662,216.875 1.594 C 215.775 1.526,214.594 1.411,214.250 1.337 C 213.193 1.112,190.555 1.031,187.480 1.242 " stroke="none" fill="#1b74f4" fill-rule="evenodd"></path><path id="path2" d="M168.808 152.250 C 168.808 152.731,168.859 152.928,168.922 152.688 C 168.985 152.447,168.985 152.053,168.922 151.813 C 168.859 151.572,168.808 151.769,168.808 152.250 " stroke="none" fill="#719df4" fill-rule="evenodd"></path><path id="path3" d="M196.188 0.937 C 198.284 0.979,201.716 0.979,203.813 0.937 C 205.909 0.895,204.194 0.861,200.000 0.861 C 195.806 0.861,194.091 0.895,196.188 0.937 M187.188 1.183 C 187.772 1.236,188.728 1.236,189.313 1.183 C 189.897 1.130,189.419 1.087,188.250 1.087 C 187.081 1.087,186.603 1.130,187.188 1.183 M210.688 1.183 C 211.272 1.236,212.228 1.236,212.813 1.183 C 213.397 1.130,212.919 1.087,211.750 1.087 C 210.581 1.087,210.103 1.130,210.688 1.183 M184.066 1.429 C 184.446 1.487,185.008 1.485,185.316 1.426 C 185.623 1.367,185.313 1.320,184.625 1.322 C 183.938 1.323,183.686 1.372,184.066 1.429 M214.938 1.426 C 215.247 1.486,215.753 1.486,216.063 1.426 C 216.372 1.367,216.119 1.318,215.500 1.318 C 214.881 1.318,214.628 1.367,214.938 1.426 M178.313 1.929 C 178.691 1.986,179.309 1.986,179.688 1.929 C 180.066 1.872,179.756 1.825,179.000 1.825 C 178.244 1.825,177.934 1.872,178.313 1.929 M220.021 1.845 C 220.078 1.897,221.025 2.001,222.125 2.077 C 223.629 2.180,223.846 2.161,223.000 2.001 C 221.844 1.781,219.835 1.676,220.021 1.845 M242.750 5.466 C 243.683 5.774,245.481 6.037,244.875 5.778 C 244.600 5.660,243.869 5.496,243.250 5.412 C 242.510 5.312,242.339 5.331,242.750 5.466 M152.125 6.500 C 151.810 6.635,151.764 6.715,152.000 6.715 C 152.206 6.715,152.600 6.618,152.875 6.500 C 153.190 6.365,153.236 6.285,153.000 6.285 C 152.794 6.285,152.400 6.382,152.125 6.500 M257.740 9.381 C 258.353 9.572,258.893 9.690,258.940 9.643 C 259.068 9.515,257.485 8.997,257.025 9.017 C 256.805 9.026,257.127 9.190,257.740 9.381 M128.625 13.884 C 128.000 14.185,127.979 14.220,128.500 14.092 C 129.208 13.919,130.005 13.513,129.625 13.519 C 129.488 13.521,129.037 13.685,128.625 13.884 M290.250 22.362 C 290.250 22.431,290.587 22.662,291.000 22.875 C 291.413 23.088,291.750 23.207,291.750 23.138 C 291.750 23.069,291.413 22.838,291.000 22.625 C 290.587 22.412,290.250 22.293,290.250 22.362 M102.438 26.143 C 101.503 26.650,101.560 26.861,102.500 26.375 C 102.912 26.162,103.250 25.934,103.250 25.869 C 103.250 25.708,103.223 25.717,102.438 26.143 M318.375 39.867 C 318.788 40.205,319.231 40.486,319.361 40.491 C 319.491 40.496,319.216 40.219,318.750 39.875 C 317.660 39.071,317.397 39.066,318.375 39.867 M77.125 43.152 L 76.125 44.047 77.188 43.253 C 78.102 42.569,78.432 42.239,78.188 42.254 C 78.153 42.256,77.675 42.660,77.125 43.152 M329.250 48.328 C 329.250 48.371,329.616 48.737,330.063 49.141 L 330.875 49.875 330.141 49.063 C 329.456 48.305,329.250 48.135,329.250 48.328 M69.109 49.813 L 68.375 50.625 69.188 49.891 C 69.634 49.487,70.000 49.121,70.000 49.078 C 70.000 48.885,69.794 49.055,69.109 49.813 M334.875 53.500 C 335.412 54.050,335.908 54.500,335.976 54.500 C 336.045 54.500,335.662 54.050,335.125 53.500 C 334.588 52.950,334.092 52.500,334.024 52.500 C 333.955 52.500,334.338 52.950,334.875 53.500 M338.990 57.313 C 340.026 58.416,340.250 58.615,340.250 58.427 C 340.250 58.387,339.716 57.853,339.063 57.240 L 337.875 56.125 338.990 57.313 M342.490 60.813 C 343.526 61.916,343.750 62.115,343.750 61.927 C 343.750 61.887,343.216 61.353,342.563 60.740 L 341.375 59.625 342.490 60.813 M346.000 64.578 C 346.000 64.621,346.366 64.987,346.813 65.391 L 347.625 66.125 346.891 65.313 C 346.206 64.555,346.000 64.385,346.000 64.578 M49.609 69.313 L 48.875 70.125 49.688 69.391 C 50.134 68.987,50.500 68.621,50.500 68.578 C 50.500 68.385,50.294 68.555,49.609 69.313 M43.000 77.250 C 42.564 77.800,42.264 78.250,42.333 78.250 C 42.402 78.250,42.814 77.800,43.250 77.250 C 43.686 76.700,43.986 76.250,43.917 76.250 C 43.848 76.250,43.436 76.700,43.000 77.250 M241.952 78.437 C 243.644 78.480,246.344 78.480,247.952 78.437 C 249.560 78.393,248.175 78.358,244.875 78.358 C 241.575 78.358,240.260 78.394,241.952 78.437 M232.000 79.005 C 230.281 79.247,229.217 79.457,229.635 79.472 C 230.053 79.488,231.628 79.334,233.135 79.130 C 234.642 78.927,236.438 78.722,237.125 78.675 C 238.153 78.605,238.086 78.588,236.750 78.578 C 235.856 78.571,233.719 78.763,232.000 79.005 M253.625 78.677 C 254.588 78.720,257.265 78.923,259.575 79.128 C 261.884 79.332,264.416 79.487,265.200 79.471 C 265.984 79.454,264.206 79.236,261.250 78.986 C 258.294 78.735,254.975 78.546,253.875 78.564 L 251.875 78.598 253.625 78.677 M358.471 79.460 C 358.749 79.850,359.174 80.328,359.416 80.522 C 359.657 80.716,359.475 80.397,359.011 79.813 C 358.057 78.612,357.703 78.381,358.471 79.460 M226.375 79.792 C 223.607 80.309,220.253 81.086,220.354 81.187 C 220.413 81.247,221.511 81.066,222.793 80.786 C 224.076 80.506,225.969 80.114,227.000 79.916 C 228.031 79.718,228.594 79.557,228.250 79.557 C 227.906 79.558,227.063 79.664,226.375 79.792 M268.875 79.885 C 270.113 80.062,271.744 80.203,272.500 80.199 C 273.442 80.194,272.971 80.089,271.000 79.865 C 267.338 79.448,265.920 79.462,268.875 79.885 M274.566 80.429 C 274.946 80.487,275.508 80.485,275.816 80.426 C 276.123 80.367,275.813 80.320,275.125 80.322 C 274.438 80.323,274.186 80.372,274.566 80.429 M278.500 80.869 C 279.669 81.067,281.019 81.218,281.500 81.204 C 282.548 81.175,280.976 80.924,278.125 80.667 L 276.375 80.509 278.500 80.869 M218.000 81.766 C 217.113 82.068,216.932 82.181,217.491 82.085 C 218.506 81.911,220.298 81.282,219.750 81.292 C 219.544 81.296,218.756 81.509,218.000 81.766 M284.125 81.638 C 285.087 81.820,286.156 81.964,286.500 81.957 C 286.844 81.950,286.337 81.795,285.375 81.612 C 284.413 81.430,283.344 81.286,283.000 81.293 C 282.656 81.300,283.163 81.455,284.125 81.638 M287.563 82.172 C 287.803 82.235,288.197 82.235,288.438 82.172 C 288.678 82.109,288.481 82.058,288.000 82.058 C 287.519 82.058,287.322 82.109,287.563 82.172 M215.250 82.625 C 214.677 82.846,214.548 82.965,214.875 82.972 C 215.150 82.978,215.656 82.822,216.000 82.625 C 216.779 82.180,216.407 82.180,215.250 82.625 M289.120 107.000 C 289.120 120.544,289.150 126.084,289.187 119.312 C 289.224 112.541,289.224 101.459,289.187 94.687 C 289.150 87.916,289.120 93.456,289.120 107.000 M211.441 83.997 C 208.542 85.128,204.151 87.234,204.325 87.409 C 204.394 87.477,205.051 87.200,205.787 86.794 C 207.234 85.995,208.955 85.240,212.188 83.986 C 213.322 83.547,214.250 83.145,214.250 83.093 C 214.250 82.925,213.903 83.036,211.441 83.997 M201.875 88.646 C 192.976 93.726,182.726 104.157,178.870 112.056 L 178.470 112.875 178.979 112.250 C 179.260 111.906,179.491 111.539,179.494 111.435 C 179.497 111.330,179.894 110.685,180.375 110.000 C 180.856 109.315,181.250 108.697,181.250 108.625 C 181.250 108.553,181.663 107.905,182.167 107.185 C 186.850 100.498,193.339 94.240,199.750 90.229 C 201.842 88.921,202.053 88.794,203.063 88.248 C 203.578 87.968,204.000 87.686,204.000 87.620 C 204.000 87.433,203.991 87.437,201.875 88.646 M26.125 102.500 C 25.912 102.912,25.793 103.250,25.862 103.250 C 25.931 103.250,26.162 102.912,26.375 102.500 C 26.588 102.088,26.707 101.750,26.638 101.750 C 26.569 101.750,26.338 102.088,26.125 102.500 M176.628 116.378 C 175.720 118.266,175.039 119.872,175.114 119.948 C 175.189 120.023,175.558 119.362,175.932 118.480 C 176.307 117.597,177.031 116.034,177.541 115.005 C 178.051 113.977,178.426 113.093,178.374 113.040 C 178.321 112.988,177.536 114.490,176.628 116.378 M174.058 122.303 C 173.613 123.442,173.253 124.487,173.260 124.625 C 173.266 124.763,173.658 123.919,174.132 122.750 C 174.605 121.581,174.964 120.536,174.930 120.428 C 174.896 120.319,174.504 121.163,174.058 122.303 M172.255 127.935 C 171.231 131.567,170.707 133.790,170.841 133.925 C 170.898 133.981,171.078 133.430,171.243 132.701 C 171.407 131.972,171.688 130.869,171.868 130.250 C 172.953 126.506,173.288 125.205,173.191 125.108 C 173.131 125.048,172.709 126.320,172.255 127.935 M385.009 126.034 C 385.004 126.121,385.164 126.571,385.365 127.034 C 385.566 127.496,385.731 127.706,385.731 127.500 C 385.732 127.140,385.027 125.709,385.009 126.034 M13.778 128.778 C 13.624 129.220,13.541 129.625,13.595 129.678 C 13.648 129.732,13.818 129.414,13.972 128.972 C 14.126 128.530,14.209 128.125,14.155 128.072 C 14.102 128.018,13.932 128.336,13.778 128.778 M268.063 131.937 C 271.878 131.976,278.122 131.976,281.938 131.937 C 285.753 131.899,282.631 131.867,275.000 131.867 C 267.369 131.867,264.247 131.899,268.063 131.937 M258.563 132.179 C 258.941 132.236,259.559 132.236,259.938 132.179 C 260.316 132.122,260.006 132.075,259.250 132.075 C 258.494 132.075,258.184 132.122,258.563 132.179 M254.500 132.625 C 253.044 133.047,253.660 133.049,255.875 132.629 C 257.254 132.368,257.413 132.298,256.625 132.299 C 256.075 132.299,255.119 132.446,254.500 132.625 M251.375 133.366 C 250.412 133.807,250.579 133.810,252.125 133.381 C 252.882 133.171,253.129 133.032,252.750 133.028 C 252.406 133.025,251.787 133.177,251.375 133.366 M248.919 134.113 C 247.839 134.498,247.289 134.915,248.250 134.620 C 249.616 134.201,250.605 133.785,250.250 133.779 C 250.044 133.775,249.445 133.925,248.919 134.113 M245.592 135.588 C 240.665 138.244,237.193 141.783,234.831 146.556 C 233.573 149.099,233.851 148.941,235.205 146.343 C 237.664 141.624,241.024 138.268,245.862 135.699 C 246.832 135.184,247.512 134.763,247.375 134.762 C 247.238 134.762,246.435 135.133,245.592 135.588 M170.029 137.279 C 169.851 138.246,169.753 139.086,169.812 139.145 C 169.871 139.204,170.068 138.464,170.250 137.500 C 170.432 136.536,170.530 135.696,170.468 135.634 C 170.405 135.572,170.208 136.312,170.029 137.279 M169.568 140.500 C 169.568 141.119,169.617 141.372,169.676 141.063 C 169.736 140.753,169.736 140.247,169.676 139.938 C 169.617 139.628,169.568 139.881,169.568 140.500 M390.288 141.000 C 390.288 141.206,390.440 141.769,390.625 142.250 C 390.810 142.731,390.962 142.956,390.962 142.750 C 390.962 142.544,390.810 141.981,390.625 141.500 C 390.440 141.019,390.288 140.794,390.288 141.000 M169.141 143.516 C 169.044 144.496,169.017 145.350,169.081 145.414 C 169.144 145.478,169.277 144.729,169.375 143.750 C 169.473 142.771,169.500 141.917,169.435 141.852 C 169.370 141.786,169.237 142.535,169.141 143.516 M168.834 147.750 C 168.834 148.781,168.878 149.203,168.932 148.688 C 168.986 148.172,168.986 147.328,168.932 146.813 C 168.878 146.297,168.834 146.719,168.834 147.750 M233.417 149.797 C 232.580 152.137,232.217 153.513,232.327 153.934 C 232.423 154.303,232.447 154.292,232.471 153.866 C 232.487 153.586,232.827 152.348,233.227 151.116 C 233.972 148.819,234.110 147.862,233.417 149.797 M168.560 174.813 L 168.500 199.500 143.313 199.561 L 118.125 199.621 143.375 199.748 L 168.625 199.875 168.690 187.418 C 168.725 180.567,168.724 169.374,168.687 162.543 C 168.650 155.713,168.593 161.234,168.560 174.813 M6.393 152.393 C 6.301 152.759,6.274 153.107,6.333 153.166 C 6.392 153.225,6.515 152.974,6.607 152.607 C 6.699 152.241,6.726 151.893,6.667 151.834 C 6.608 151.775,6.485 152.026,6.393 152.393 M231.750 156.027 C 231.468 157.311,231.382 161.773,231.314 178.750 L 231.229 199.875 258.802 199.750 L 286.375 199.625 258.926 199.561 L 231.476 199.498 231.573 178.561 C 231.644 163.316,231.753 157.263,231.975 156.294 C 232.142 155.562,232.239 154.843,232.190 154.696 C 232.141 154.549,231.943 155.148,231.750 156.027 M394.300 155.875 C 394.300 156.150,394.390 156.656,394.500 157.000 C 394.658 157.495,394.700 157.521,394.700 157.125 C 394.700 156.850,394.610 156.344,394.500 156.000 C 394.342 155.505,394.300 155.479,394.300 155.875 M397.808 176.250 C 397.808 176.731,397.859 176.928,397.922 176.688 C 397.985 176.447,397.985 176.053,397.922 175.813 C 397.859 175.572,397.808 175.769,397.808 176.250 M398.072 178.375 C 398.073 179.063,398.122 179.314,398.179 178.934 C 398.237 178.554,398.235 177.992,398.176 177.684 C 398.117 177.377,398.070 177.688,398.072 178.375 M1.825 179.000 C 1.825 179.756,1.872 180.066,1.929 179.688 C 1.986 179.309,1.986 178.691,1.929 178.313 C 1.872 177.934,1.825 178.244,1.825 179.000 M398.308 181.500 C 398.308 181.981,398.359 182.178,398.422 181.938 C 398.485 181.697,398.485 181.303,398.422 181.063 C 398.359 180.822,398.308 181.019,398.308 181.500 M398.568 184.000 C 398.568 184.619,398.617 184.872,398.676 184.563 C 398.736 184.253,398.736 183.747,398.676 183.438 C 398.617 183.128,398.568 183.381,398.568 184.000 M1.322 184.625 C 1.323 185.313,1.372 185.564,1.429 185.184 C 1.487 184.804,1.485 184.242,1.426 183.934 C 1.367 183.627,1.320 183.938,1.322 184.625 M398.836 187.125 C 398.837 188.225,398.881 188.644,398.933 188.056 C 398.986 187.468,398.985 186.568,398.932 186.056 C 398.878 185.544,398.835 186.025,398.836 187.125 M1.087 188.250 C 1.087 189.419,1.130 189.897,1.183 189.313 C 1.236 188.728,1.236 187.772,1.183 187.188 C 1.130 186.603,1.087 187.081,1.087 188.250 M399.087 193.000 C 399.087 194.169,399.130 194.647,399.183 194.063 C 399.236 193.478,399.236 192.522,399.183 191.938 C 399.130 191.353,399.087 191.831,399.087 193.000 M0.861 200.000 C 0.861 204.194,0.895 205.909,0.937 203.813 C 0.979 201.716,0.979 198.284,0.937 196.188 C 0.895 194.091,0.861 195.806,0.861 200.000 M118.123 228.875 L 118.125 257.875 143.312 257.939 L 168.499 258.002 168.563 327.439 L 168.626 396.875 168.688 327.313 L 168.750 257.750 143.501 257.750 L 118.252 257.750 118.187 228.813 L 118.122 199.875 118.123 228.875 M286.069 203.000 C 285.901 204.031,285.708 205.606,285.641 206.500 C 285.561 207.553,285.689 207.068,286.005 205.125 C 286.274 203.475,286.467 201.900,286.434 201.625 C 286.402 201.350,286.237 201.969,286.069 203.000 M399.087 207.000 C 399.087 208.169,399.130 208.647,399.183 208.063 C 399.236 207.478,399.236 206.522,399.183 205.938 C 399.130 205.353,399.087 205.831,399.087 207.000 M285.045 209.934 C 284.883 210.917,284.761 212.037,284.774 212.423 C 284.788 212.809,284.956 212.113,285.149 210.875 C 285.341 209.637,285.463 208.517,285.420 208.386 C 285.376 208.254,285.208 208.951,285.045 209.934 M1.087 211.750 C 1.087 212.919,1.130 213.397,1.183 212.813 C 1.236 212.228,1.236 211.272,1.183 210.688 C 1.130 210.103,1.087 210.581,1.087 211.750 M398.836 212.875 C 398.837 213.975,398.881 214.394,398.933 213.806 C 398.986 213.218,398.985 212.318,398.932 211.806 C 398.878 211.294,398.835 211.775,398.836 212.875 M284.267 215.024 C 284.090 216.059,284.001 217.124,284.069 217.391 C 284.148 217.701,284.202 217.588,284.221 217.075 C 284.237 216.635,284.372 215.706,284.521 215.012 C 284.670 214.318,284.746 213.613,284.690 213.446 C 284.635 213.279,284.444 213.989,284.267 215.024 M1.318 215.500 C 1.318 216.119,1.367 216.372,1.426 216.063 C 1.486 215.753,1.486 215.247,1.426 214.938 C 1.367 214.628,1.318 214.881,1.318 215.500 M398.568 216.250 C 398.568 216.869,398.617 217.122,398.676 216.813 C 398.736 216.503,398.736 215.997,398.676 215.688 C 398.617 215.378,398.568 215.631,398.568 216.250 M1.558 217.750 C 1.558 218.231,1.609 218.428,1.672 218.188 C 1.735 217.947,1.735 217.553,1.672 217.313 C 1.609 217.072,1.558 217.269,1.558 217.750 M398.308 218.500 C 398.308 218.981,398.359 219.178,398.422 218.938 C 398.485 218.697,398.485 218.303,398.422 218.063 C 398.359 217.822,398.308 218.019,398.308 218.500 M283.387 220.681 C 283.148 222.163,282.794 224.284,282.601 225.394 C 282.408 226.505,282.265 227.743,282.284 228.144 C 282.315 228.807,282.327 228.817,282.416 228.250 C 282.740 226.181,283.311 222.676,283.659 220.615 C 283.881 219.303,284.008 218.175,283.942 218.109 C 283.876 218.042,283.626 219.200,283.387 220.681 M1.769 220.896 C 1.779 221.434,1.883 222.381,2.001 223.000 C 2.161 223.846,2.180 223.629,2.077 222.125 C 1.932 220.014,1.737 219.239,1.769 220.896 M398.063 221.875 C 398.066 222.425,398.117 222.621,398.177 222.310 C 398.237 221.999,398.234 221.549,398.172 221.310 C 398.109 221.071,398.060 221.325,398.063 221.875 M281.629 232.129 C 281.380 233.851,281.227 235.310,281.289 235.372 C 281.351 235.434,281.605 234.076,281.853 232.353 C 282.102 230.631,282.255 229.172,282.194 229.111 C 282.133 229.049,281.879 230.408,281.629 232.129 M280.763 238.013 C 280.584 239.117,280.488 240.071,280.549 240.132 C 280.611 240.194,280.808 239.341,280.987 238.237 C 281.166 237.133,281.262 236.179,281.201 236.118 C 281.139 236.056,280.942 236.909,280.763 238.013 M280.313 241.375 C 280.316 241.925,280.367 242.121,280.427 241.810 C 280.487 241.499,280.484 241.049,280.422 240.810 C 280.359 240.571,280.310 240.825,280.313 241.375 M5.412 243.250 C 5.496 243.869,5.660 244.600,5.778 244.875 C 6.037 245.481,5.774 243.683,5.466 242.750 C 5.331 242.339,5.312 242.510,5.412 243.250 M279.767 244.274 C 279.590 245.309,279.501 246.374,279.569 246.641 C 279.648 246.951,279.702 246.838,279.721 246.325 C 279.737 245.885,279.872 244.956,280.021 244.262 C 280.170 243.568,280.246 242.863,280.190 242.696 C 280.135 242.529,279.944 243.239,279.767 244.274 M394.156 244.531 C 393.948 245.573,394.150 245.775,394.375 244.750 C 394.470 244.318,394.495 243.912,394.432 243.848 C 394.368 243.785,394.244 244.092,394.156 244.531 M278.930 249.514 C 278.694 250.829,278.511 252.235,278.523 252.639 C 278.536 253.044,278.759 252.137,279.020 250.625 C 279.280 249.113,279.463 247.706,279.427 247.500 C 279.390 247.294,279.167 248.200,278.930 249.514 M278.057 255.029 C 277.888 255.938,277.750 256.923,277.750 257.216 L 277.750 257.750 254.500 257.750 L 231.250 257.750 231.312 327.313 L 231.374 396.875 231.437 327.439 L 231.501 258.003 254.680 257.939 L 277.860 257.875 278.180 256.000 C 278.356 254.969,278.469 253.956,278.432 253.750 C 278.394 253.544,278.226 254.119,278.057 255.029 M9.017 257.025 C 8.997 257.485,9.515 259.068,9.643 258.940 C 9.690 258.893,9.572 258.353,9.381 257.740 C 9.190 257.127,9.026 256.805,9.017 257.025 M390.779 257.292 C 390.763 257.521,390.685 257.915,390.606 258.167 C 390.470 258.601,390.477 258.602,390.748 258.180 C 390.905 257.935,390.983 257.541,390.921 257.305 C 390.819 256.918,390.805 256.916,390.779 257.292 M380.791 283.636 C 380.372 284.555,380.452 284.751,380.905 283.915 C 381.116 283.525,381.242 283.159,381.185 283.102 C 381.128 283.045,380.950 283.285,380.791 283.636 M22.625 291.000 C 22.838 291.413,23.069 291.750,23.138 291.750 C 23.207 291.750,23.088 291.413,22.875 291.000 C 22.662 290.587,22.431 290.250,22.362 290.250 C 22.293 290.250,22.412 290.587,22.625 291.000 M363.500 313.750 C 363.206 314.163,363.022 314.500,363.091 314.500 C 363.160 314.500,363.456 314.163,363.750 313.750 C 364.044 313.337,364.228 313.000,364.159 313.000 C 364.090 313.000,363.794 313.337,363.500 313.750 M39.251 317.764 C 39.251 317.840,39.531 318.284,39.875 318.750 C 40.219 319.216,40.496 319.491,40.491 319.361 C 40.481 319.110,39.253 317.528,39.251 317.764 M49.000 330.125 C 49.466 330.606,49.904 331.000,49.973 331.000 C 50.042 331.000,49.716 330.606,49.250 330.125 C 48.784 329.644,48.346 329.250,48.277 329.250 C 48.208 329.250,48.534 329.644,49.000 330.125 M347.113 334.313 L 346.125 335.375 347.188 334.387 C 348.176 333.468,348.365 333.250,348.176 333.250 C 348.135 333.250,347.657 333.728,347.113 334.313 M53.375 335.000 C 53.912 335.550,54.408 336.000,54.476 336.000 C 54.545 336.000,54.162 335.550,53.625 335.000 C 53.088 334.450,52.592 334.000,52.524 334.000 C 52.455 334.000,52.838 334.450,53.375 335.000 M342.750 338.875 C 341.726 339.906,340.944 340.750,341.013 340.750 C 341.081 340.750,341.976 339.906,343.000 338.875 C 344.024 337.844,344.806 337.000,344.737 337.000 C 344.669 337.000,343.774 337.844,342.750 338.875 M57.240 339.063 C 57.853 339.716,58.387 340.250,58.427 340.250 C 58.615 340.250,58.416 340.026,57.313 338.990 L 56.125 337.875 57.240 339.063 M338.750 342.875 C 337.726 343.906,336.944 344.750,337.013 344.750 C 337.081 344.750,337.976 343.906,339.000 342.875 C 340.024 341.844,340.806 341.000,340.737 341.000 C 340.669 341.000,339.774 341.844,338.750 342.875 M60.740 342.563 C 61.776 343.666,62.000 343.865,62.000 343.677 C 62.000 343.637,61.466 343.103,60.813 342.490 L 59.625 341.375 60.740 342.563 M64.875 346.500 C 65.412 347.050,65.908 347.500,65.976 347.500 C 66.045 347.500,65.662 347.050,65.125 346.500 C 64.588 345.950,64.092 345.500,64.024 345.500 C 63.955 345.500,64.338 345.950,64.875 346.500 M334.113 347.313 L 333.125 348.375 334.188 347.387 C 335.176 346.468,335.365 346.250,335.176 346.250 C 335.135 346.250,334.657 346.728,334.113 347.313 M66.750 348.078 C 66.750 348.121,67.116 348.487,67.563 348.891 L 68.375 349.625 67.641 348.813 C 66.956 348.055,66.750 347.885,66.750 348.078 M69.250 350.328 C 69.250 350.371,69.616 350.737,70.063 351.141 L 70.875 351.875 70.141 351.063 C 69.456 350.305,69.250 350.135,69.250 350.328 M313.625 363.647 L 312.875 364.291 313.688 363.754 C 314.134 363.458,314.500 363.167,314.500 363.108 C 314.500 362.921,314.394 362.986,313.625 363.647 M100.500 372.728 C 100.844 373.009,101.237 373.240,101.375 373.241 C 101.643 373.242,101.190 372.896,100.375 372.475 C 100.043 372.303,100.085 372.388,100.500 372.728 M283.500 380.875 C 283.156 381.072,282.988 381.232,283.125 381.232 C 283.262 381.232,283.656 381.072,284.000 380.875 C 284.344 380.678,284.512 380.518,284.375 380.518 C 284.238 380.518,283.844 380.678,283.500 380.875 M126.500 385.375 C 126.844 385.572,127.237 385.732,127.375 385.732 C 127.513 385.732,127.344 385.572,127.000 385.375 C 126.656 385.178,126.263 385.018,126.125 385.018 C 125.987 385.018,126.156 385.178,126.500 385.375 M128.500 386.125 C 128.844 386.322,129.294 386.482,129.500 386.481 C 129.706 386.481,129.496 386.316,129.034 386.115 C 127.969 385.653,127.684 385.658,128.500 386.125 M139.125 389.884 C 139.537 390.073,140.044 390.224,140.250 390.220 C 140.456 390.215,140.231 390.060,139.750 389.875 C 138.609 389.435,138.159 389.442,139.125 389.884 M257.500 390.750 C 256.985 390.915,256.963 390.954,257.375 390.971 C 257.650 390.983,258.044 390.883,258.250 390.750 C 258.688 390.467,258.384 390.467,257.500 390.750 M151.875 393.500 C 152.150 393.618,152.544 393.715,152.750 393.715 C 152.986 393.715,152.940 393.635,152.625 393.500 C 152.350 393.382,151.956 393.285,151.750 393.285 C 151.514 393.285,151.560 393.365,151.875 393.500 M244.250 394.250 C 243.748 394.411,243.723 394.452,244.125 394.458 C 244.400 394.462,244.850 394.368,245.125 394.250 C 245.762 393.976,245.105 393.976,244.250 394.250 M156.000 394.500 C 156.344 394.610,156.850 394.700,157.125 394.700 C 157.521 394.700,157.495 394.658,157.000 394.500 C 156.656 394.390,156.150 394.300,155.875 394.300 C 155.479 394.300,155.505 394.342,156.000 394.500 " stroke="none" fill="#0470f4" fill-rule="evenodd"></path><path id="path4" d="M243.320 78.684 C 243.977 78.736,244.990 78.735,245.570 78.683 C 246.150 78.630,245.613 78.588,244.375 78.589 C 243.137 78.590,242.663 78.632,243.320 78.684 M168.832 154.625 C 168.833 155.588,168.878 155.951,168.932 155.432 C 168.987 154.913,168.986 154.126,168.930 153.682 C 168.875 153.238,168.831 153.662,168.832 154.625 M168.870 178.000 C 168.870 189.894,168.900 194.759,168.937 188.813 C 168.975 182.866,168.975 173.134,168.937 167.188 C 168.900 161.241,168.870 166.106,168.870 178.000 M168.873 327.250 C 168.873 365.406,168.902 381.016,168.937 361.937 C 168.973 342.859,168.973 311.641,168.937 292.562 C 168.902 273.484,168.873 289.094,168.873 327.250 " stroke="none" fill="#88b4f6" fill-rule="evenodd"></path><path id="path5" d="M239.942 78.681 C 240.391 78.737,241.066 78.736,241.442 78.679 C 241.818 78.622,241.450 78.576,240.625 78.577 C 239.800 78.579,239.493 78.626,239.942 78.681 M247.688 78.683 C 248.272 78.736,249.228 78.736,249.813 78.683 C 250.397 78.630,249.919 78.587,248.750 78.587 C 247.581 78.587,247.103 78.630,247.688 78.683 M288.750 106.950 L 288.875 131.625 288.939 107.139 C 288.974 93.671,288.918 82.568,288.814 82.464 C 288.710 82.360,288.681 93.379,288.750 106.950 " stroke="none" fill="#4a88f4" fill-rule="evenodd"></path><path id="path6" d="" stroke="none" fill="#2c83f4" fill-rule="evenodd"></path><path id="path7" d="M257.313 79.172 C 257.553 79.235,257.947 79.235,258.188 79.172 C 258.428 79.109,258.231 79.058,257.750 79.058 C 257.269 79.058,257.072 79.109,257.313 79.172 M268.063 131.687 C 271.878 131.726,278.122 131.726,281.938 131.687 C 285.753 131.649,282.631 131.617,275.000 131.617 C 267.369 131.617,264.247 131.649,268.063 131.687 M169.068 149.000 C 169.068 149.619,169.117 149.872,169.176 149.563 C 169.236 149.253,169.236 148.747,169.176 148.438 C 169.117 148.128,169.068 148.381,169.068 149.000 M130.957 257.687 C 138.014 257.724,149.489 257.724,156.457 257.687 C 163.424 257.651,157.650 257.620,143.625 257.620 C 129.600 257.620,123.899 257.651,130.957 257.687 M242.669 257.687 C 249.018 257.725,259.480 257.725,265.919 257.687 C 272.357 257.650,267.163 257.620,254.375 257.620 C 241.588 257.620,236.320 257.650,242.669 257.687 " stroke="none" fill="#9cacf4" fill-rule="evenodd"></path><path id="path8" d="M130.937 199.937 C 137.847 199.974,149.153 199.974,156.062 199.937 C 162.972 199.901,157.319 199.870,143.500 199.870 C 129.681 199.870,124.028 199.901,130.937 199.937 M245.187 199.937 C 252.647 199.974,264.853 199.974,272.313 199.937 C 279.772 199.901,273.669 199.871,258.750 199.871 C 243.831 199.871,237.728 199.901,245.187 199.937 " stroke="none" fill="#2c8cf4" fill-rule="evenodd"></path></g></svg>