<?xml version="1.0" standalone="no"?>
<!DOCTYPE svg PUBLIC "-//W3C//DTD SVG 20010904//EN"
 "http://www.w3.org/TR/2001/REC-SVG-20010904/DTD/svg10.dtd">
<svg version="1.0" xmlns="http://www.w3.org/2000/svg"
 width="5000.000000pt" height="5000.000000pt" viewBox="0 0 5000.000000 5000.000000"
 preserveAspectRatio="xMidYMid meet">

<g transform="translate(0.000000,5000.000000) scale(0.100000,-0.100000)"
fill="#000000" stroke="none">
<path d="M24435 49384 c-2893 -77 -5434 -544 -7990 -1471 -2478 -898 -4931
-2280 -7070 -3981 -757 -602 -1334 -1120 -2066 -1851 -847 -848 -1458 -1545
-2171 -2476 -1158 -1514 -2214 -3279 -2980 -4985 -607 -1351 -1070 -2685
-1422 -4096 -587 -2353 -824 -4842 -706 -7409 201 -4351 1466 -8378 3770
-12001 1532 -2407 3435 -4554 5555 -6265 1083 -874 2229 -1645 3455 -2324
1265 -700 2656 -1313 4060 -1790 304 -103 401 -120 705 -118 173 0 215 4 316
25 237 52 409 145 560 305 172 183 280 385 335 623 25 111 28 450 15 1775 -6
633 -14 1605 -17 2160 -4 556 -7 1010 -8 1011 0 0 -190 -32 -421 -72 -619
-107 -800 -130 -1230 -155 -261 -16 -1081 -16 -1355 0 -617 34 -1245 109
-1825 217 -322 60 -716 177 -1004 299 -671 283 -1313 730 -1743 1211 -350 393
-604 817 -802 1344 -90 236 -390 915 -511 1155 -214 423 -464 816 -826 1295
-460 608 -878 998 -1339 1245 -240 129 -454 289 -650 485 -200 199 -328 373
-412 560 -66 148 -49 254 56 346 151 132 472 204 910 204 139 0 199 -6 490
-50 199 -30 376 -62 441 -81 563 -158 1426 -659 1975 -1148 457 -407 776 -809
1155 -1451 498 -845 1121 -1507 1833 -1948 596 -369 1167 -566 1782 -613 252
-19 841 -2 1270 36 773 71 1502 257 2156 551 l122 55 11 82 c21 144 61 367 97
532 110 506 249 920 450 1333 127 262 177 350 319 567 180 272 341 469 574
700 72 72 131 133 131 136 0 3 -53 11 -117 18 -689 72 -1601 213 -2261 351
-1278 267 -2158 563 -3248 1095 -818 398 -1504 820 -2059 1264 -1201 961
-1997 2064 -2648 3666 -521 1282 -833 2619 -971 4160 -81 904 -97 1981 -40
2695 175 2202 991 4095 2466 5723 l68 74 -64 169 c-228 605 -377 1237 -445
1889 -51 489 -49 1127 5 1660 88 874 322 1838 667 2749 74 195 55 178 239 215
609 122 1452 -28 2564 -457 908 -350 1942 -812 2489 -1111 303 -166 934 -555
1403 -864 l273 -180 287 77 c1351 359 2771 597 4177 701 667 49 991 60 1785
60 794 0 1118 -11 1785 -60 1402 -103 2845 -346 4177 -701 155 -42 287 -73
296 -69 8 3 299 185 646 404 347 219 696 436 776 483 788 463 1630 864 2630
1251 736 284 1278 433 1796 493 202 23 558 23 707 0 100 -16 295 -60 304 -70
2 -2 29 -68 59 -146 403 -1048 633 -2011 721 -3020 25 -287 25 -1023 0 -1290
-72 -766 -213 -1386 -468 -2053 l-49 -129 67 -75 c1400 -1548 2197 -3306 2433
-5366 55 -484 75 -927 66 -1537 -15 -1168 -105 -2129 -287 -3099 -333 -1773
-1006 -3457 -1839 -4606 -246 -339 -468 -595 -824 -950 -716 -715 -1419 -1217
-2476 -1771 -963 -503 -1892 -862 -2855 -1103 -905 -226 -1986 -414 -2965
-517 -91 -9 -166 -18 -168 -19 -2 -2 28 -31 65 -66 790 -733 1273 -1691 1492
-2959 52 -300 80 -552 113 -995 8 -116 13 -1192 18 -3920 l6 -3760 22 -97 c90
-392 348 -723 669 -856 151 -63 401 -99 613 -87 252 14 349 35 650 138 1712
590 3297 1326 4790 2224 2458 1480 4653 3414 6516 5743 2759 3450 4473 7229
5168 11395 326 1955 424 4084 281 6130 -204 2916 -882 5651 -2053 8285 -1012
2277 -2467 4541 -4137 6435 -601 681 -1391 1476 -2075 2086 -1310 1167 -2762
2208 -4335 3106 -2838 1620 -5875 2633 -9090 3032 -550 68 -1046 113 -1725
156 -455 29 -1634 51 -2085 39z"/>
</g>
</svg>
