<?xml version="1.0" standalone="yes"?>
<svg xmlns="http://www.w3.org/2000/svg" width="1016" height="1428">
<path style="fill:#fbfbfb; stroke:none;" d="M0 0L0 279L1016 279L1016 0L474 0L474 193L319 193L319 127L409 127L409 0L0 0z"/>
<path style="fill:#231f21; stroke:none;" d="M409 0L409 127L319 127L319 193L474 193L474 0L409 0M539 1L539 48L539.603 69L558 88.0146L601 130L539 130L539 192L697 192L697 150L696.397 130L679 111.004L636 69L697 69L697 1L539 1z"/>
<path style="fill:#eaac27; stroke:none;" d="M0 279L7.16975 355L22.1698 518L69.8302 1032L88.8302 1238L93.7145 1292L96.0278 1310.49L108 1315.14L141 1324.42L270 1361L431 1406.71L483 1421.42L508 1427.82L534 1421.14L587 1406.14L763 1356.14L879 1323.29L908 1315.12L919.821 1310.49L922.17 1291L927.17 1237L946.17 1031L992.83 528L1007.83 366L1016 279L0 279z"/>
<path style="fill:#fbfbfb; stroke:none;" d="M0 281L0 1428L505 1428L505 1427C470.855 1421.98 436.274 1407.68 403 1398.42C336.243 1379.86 269.595 1360.85 203 1341.71C177.707 1334.44 152.402 1327.03 127 1320.15C119.306 1318.07 102.008 1316.52 96.6034 1310.49C93.0898 1306.56 94.3209 1296.07 93.7145 1291C91.6126 1273.43 90.2052 1255.65 88.9113 1238C84.389 1176.31 77.7888 1114.57 71.8302 1053C54.547 874.402 39.4532 695.599 22.1698 517C16.9144 462.693 12.4254 408.309 7.16975 354C5.46149 336.348 4.37094 318.617 2.28549 301C1.54034 294.705 2.44695 286.831 0 281M1015 281C1015 310.465 1010.01 340.675 1007.17 370C1001.95 423.98 997.393 478.021 992.17 532C975.758 701.594 961.582 871.403 945.17 1041C938.857 1106.23 931.88 1171.64 927.089 1237C925.792 1254.7 923.879 1272.34 922.17 1290C921.65 1295.37 922.952 1306.27 919.258 1310.49C914.122 1316.34 897.387 1317.77 890 1319.86C864.331 1327.14 838.641 1334.34 813 1341.71C746.4 1360.85 679.639 1379.42 613 1398.42C579.879 1407.86 545.043 1421.99 511 1427L511 1428L1016 1428L1016 613L1016 378L1016 311L1015 281z"/>
<path style="fill:#f6dda8; stroke:none;" d="M260 490L261 491L260 490z"/>
<path style="fill:#fbfbfb; stroke:none;" d="M225 874L661 874L647 1038C635.897 1038.97 624.684 1043.8 614 1046.86C592.011 1053.16 569.91 1059.15 548 1065.72C535.77 1069.39 522.664 1074.79 510 1076.5C498.156 1078.09 481.4 1069.67 470 1066.42C447.306 1059.95 424.68 1053.23 402 1046.71C392.004 1043.84 379.296 1042.29 370.144 1037.35C363.818 1033.93 365.369 1019.25 364.911 1013C363.616 995.324 361.856 977.644 360.17 960C359.689 954.968 361.155 943.622 357.972 939.603C356.109 937.25 351.617 938.001 349 938L326 938L230 938C236.085 986.149 238.009 1034.8 243.715 1083C245.085 1094.57 246.059 1106.37 246.911 1118C247.228 1122.32 246.394 1130.86 249.028 1134.44C252.892 1139.69 268.866 1141.23 275 1143C298.973 1149.91 323.008 1156.58 347 1163.42L456 1194.42C471.555 1198.86 491.866 1208.63 508 1208.63C522.7 1208.63 540.848 1199.73 555 1195.71L656 1167.14L738 1143.86C744.689 1141.96 762.791 1140.12 766.972 1134.44C771.232 1128.65 769.483 1113.09 770.17 1106C772.62 1080.68 774.719 1055.32 777.17 1030C782.78 972.027 787.56 913.971 793.17 856C796.61 820.451 802.901 783.708 803 748L358 748L360.09 706L364 619L668 619L670.985 670L673.028 691.397L682 693L705 693L801 693C800.946 673.506 796.144 653.296 793.424 634C789.01 602.683 785.053 571.286 780.421 540C778.647 528.015 777.156 515.987 775.421 504C774.936 500.652 775.277 493.291 772.397 491.028C767.396 487.097 751.248 490 745 490L669 490L375 490L292 490C285.204 490 267.001 486.764 261.603 491.028C257.265 494.455 258.257 510.756 257.965 516C256.727 538.23 254.359 560.89 251.715 583C244.446 643.773 240.726 705.076 234.83 766C231.391 801.543 225.098 838.298 225 874z"/>
<path style="fill:#f6dda8; stroke:none;" d="M773 490L774 491L773 490z"/>
<path style="fill:#f1c97c; stroke:none;" d="M259 493L259 496L260 496L259 493M774.333 494.667L774.667 495.333L774.333 494.667z"/>
<path style="fill:#f6dda8; stroke:none;" d="M259 496L259 499L260 499L259 496M774.333 496.667L774.667 497.333L774.333 496.667z"/>
<path style="fill:#f1c97c; stroke:none;" d="M775.333 501.667L775.667 502.333L775.333 501.667z"/>
<path style="fill:#f6dda8; stroke:none;" d="M775.333 503.667L775.667 504.333L775.333 503.667z"/>
<path style="fill:#f1c97c; stroke:none;" d="M258 504L258 507L259 507L258 504z"/>
<path style="fill:#f6dda8; stroke:none;" d="M258 507L258 510L259 510L258 507z"/>
<path style="fill:#f1c97c; stroke:none;" d="M776.333 508.667L776.667 509.333L776.333 508.667z"/>
<path style="fill:#f6dda8; stroke:none;" d="M776 510L776 513L777 513L776 510z"/>
<path style="fill:#f1c97c; stroke:none;" d="M257 515L257 518L258 518L257 515M777.333 515.667L777.667 516.333L777.333 515.667z"/>
<path style="fill:#f6dda8; stroke:none;" d="M777 517L777 520L778 520L777 517M257 518L257 521L258 521L257 518z"/>
<path style="fill:#f1c97c; stroke:none;" d="M778.333 523.667L778.667 524.333L778.333 523.667z"/>
<path style="fill:#f6dda8; stroke:none;" d="M778.333 525.667L778.667 526.333L778.333 525.667z"/>
<path style="fill:#f1c97c; stroke:none;" d="M256 526L256 529L257 529L256 526z"/>
<path style="fill:#f6dda8; stroke:none;" d="M256.333 529.667L256.667 530.333L256.333 529.667z"/>
<path style="fill:#f1c97c; stroke:none;" d="M779.333 530.667L779.667 531.333L779.333 530.667z"/>
<path style="fill:#f6dda8; stroke:none;" d="M779.333 532.667L779.667 533.333L779.333 532.667z"/>
<path style="fill:#f1c97c; stroke:none;" d="M255.333 537.667L255.667 538.333L255.333 537.667M780.333 537.667L780.667 538.333L780.333 537.667z"/>
<path style="fill:#f6dda8; stroke:none;" d="M255 539L255 542L256 542L255 539M780.333 539.667L780.667 540.333L780.333 539.667z"/>
<path style="fill:#f1c97c; stroke:none;" d="M781.333 544.667L781.667 545.333L781.333 544.667z"/>
<path style="fill:#f6dda8; stroke:none;" d="M781.333 546.667L781.667 547.333L781.333 546.667z"/>
<path style="fill:#f1c97c; stroke:none;" d="M254 547L254 550L255 550L254 547z"/>
<path style="fill:#f6dda8; stroke:none;" d="M254 550L254 553L255 553L254 550z"/>
<path style="fill:#f1c97c; stroke:none;" d="M782.333 551.667L782.667 552.333L782.333 551.667z"/>
<path style="fill:#f6dda8; stroke:none;" d="M782 553L782 556L783 556L782 553z"/>
<path style="fill:#f1c97c; stroke:none;" d="M253 558L253 561L254 561L253 558M783 558L783 561L784 561L783 558z"/>
<path style="fill:#f6dda8; stroke:none;" d="M253 561L253 564L254 564L253 561M783.333 561.667L783.667 562.333L783.333 561.667z"/>
<path style="fill:#f1c97c; stroke:none;" d="M784.333 566.667L784.667 567.333L784.333 566.667z"/>
<path style="fill:#f6dda8; stroke:none;" d="M784.333 568.667L784.667 569.333L784.333 568.667z"/>
<path style="fill:#f1c97c; stroke:none;" d="M252 569L252 572L253 572L252 569z"/>
<path style="fill:#f6dda8; stroke:none;" d="M252 572L252 575L253 575L252 572z"/>
<path style="fill:#f1c97c; stroke:none;" d="M785.333 573.667L785.667 574.333L785.333 573.667z"/>
<path style="fill:#f6dda8; stroke:none;" d="M785.333 575.667L785.667 576.333L785.333 575.667z"/>
<path style="fill:#f1c97c; stroke:none;" d="M251 580L251 583L252 583L251 580M786.333 580.667L786.667 581.333L786.333 580.667z"/>
<path style="fill:#f6dda8; stroke:none;" d="M786.333 582.667L786.667 583.333L786.333 582.667M251.333 583.667L251.667 584.333L251.333 583.667z"/>
<path style="fill:#f1c97c; stroke:none;" d="M787.333 587.667L787.667 588.333L787.333 587.667z"/>
<path style="fill:#f6dda8; stroke:none;" d="M787 589L787 592L788 592L787 589z"/>
<path style="fill:#f1c97c; stroke:none;" d="M250.333 591.667L250.667 592.333L250.333 591.667z"/>
<path style="fill:#f6dda8; stroke:none;" d="M250 593L250 596L251 596L250 593z"/>
<path style="fill:#f1c97c; stroke:none;" d="M788.333 594.667L788.667 595.333L788.333 594.667z"/>
<path style="fill:#f6dda8; stroke:none;" d="M788 596L788 599L789 599L788 596z"/>
<path style="fill:#f1c97c; stroke:none;" d="M249 601L249 604L250 604L249 601M789.333 602.667L789.667 603.333L789.333 602.667z"/>
<path style="fill:#f6dda8; stroke:none;" d="M249 604L249 607L250 607L249 604M789.333 604.667L789.667 605.333L789.333 604.667z"/>
<path style="fill:#f1c97c; stroke:none;" d="M790.333 609.667L790.667 610.333L790.333 609.667z"/>
<path style="fill:#f6dda8; stroke:none;" d="M790.333 611.667L790.667 612.333L790.333 611.667z"/>
<path style="fill:#f1c97c; stroke:none;" d="M248 612L248 615L249 615L248 612z"/>
<path style="fill:#f6dda8; stroke:none;" d="M248 615L248 618L249 618L248 615z"/>
<path style="fill:#f1c97c; stroke:none;" d="M791.333 616.667L791.667 617.333L791.333 616.667z"/>
<path style="fill:#f6dda8; stroke:none;" d="M791.333 618.667L791.667 619.333L791.333 618.667M364.333 619.667L364.667 620.333L364.333 619.667M667 619L667 622L668 622L667 619z"/>
<path style="fill:#f1c97c; stroke:none;" d="M364 621L364 631L365 631L364 621M667 622L667 626L668 626L667 622M247 623L247 626L248 626L247 623M792.333 623.667L792.667 624.333L792.333 623.667z"/>
<path style="fill:#f6dda8; stroke:none;" d="M792.333 625.667L792.667 626.333L792.333 625.667M247 626L247 629L248 629L247 626z"/>
<path style="fill:#f1c97c; stroke:none;" d="M793.333 630.667L793.667 631.333L793.333 630.667z"/>
<path style="fill:#f6dda8; stroke:none;" d="M793 632L793 635L794 635L793 632M668 633L668 638L669 638L668 633z"/>
<path style="fill:#f1c97c; stroke:none;" d="M246 634L246 637L247 637L246 634z"/>
<path style="fill:#f6dda8; stroke:none;" d="M363 636L363 642L364 642L363 636M246.333 637.667L246.667 638.333L246.333 637.667z"/>
<path style="fill:#f1c97c; stroke:none;" d="M794 637L794 640L795 640L794 637M668 638L668 642L669 642L668 638z"/>
<path style="fill:#f6dda8; stroke:none;" d="M794.333 640.667L794.667 641.333L794.333 640.667z"/>
<path style="fill:#f1c97c; stroke:none;" d="M363 642L363 653L364 653L363 642M245.333 645.667L245.667 646.333L245.333 645.667M795.333 645.667L795.667 646.333L795.333 645.667z"/>
<path style="fill:#f6dda8; stroke:none;" d="M245 647L245 650L246 650L245 647M795.333 647.667L795.667 648.333L795.333 647.667M669 649L669 653L670 653L669 649z"/>
<path style="fill:#f1c97c; stroke:none;" d="M796.333 652.667L796.667 653.333L796.333 652.667M669 653L669 657L670 657L669 653z"/>
<path style="fill:#f6dda8; stroke:none;" d="M796.333 654.667L796.667 655.333L796.333 654.667z"/>
<path style="fill:#f1c97c; stroke:none;" d="M244 655L244 658L245 658L244 655z"/>
<path style="fill:#f6dda8; stroke:none;" d="M244 658L244 661L245 661L244 658M362 658L362 664L363 664L362 658z"/>
<path style="fill:#f1c97c; stroke:none;" d="M797.333 659.667L797.667 660.333L797.333 659.667z"/>
<path style="fill:#f6dda8; stroke:none;" d="M797.333 661.667L797.667 662.333L797.333 661.667z"/>
<path style="fill:#f1c97c; stroke:none;" d="M362 664L362 675L363 675L362 664z"/>
<path style="fill:#f6dda8; stroke:none;" d="M670 664L670 668L671 668L670 664z"/>
<path style="fill:#f1c97c; stroke:none;" d="M243 666L243 669L244 669L243 666M798.333 666.667L798.667 667.333L798.333 666.667M670 668L670 673L671 673L670 668z"/>
<path style="fill:#f6dda8; stroke:none;" d="M798 668L798 671L799 671L798 668M243 669L243 672L244 672L243 669z"/>
<path style="fill:#f1c97c; stroke:none;" d="M799.333 673.667L799.667 674.333L799.333 673.667z"/>
<path style="fill:#f6dda8; stroke:none;" d="M799 675L799 678L800 678L799 675z"/>
<path style="fill:#f1c97c; stroke:none;" d="M242 677L242 680L243 680L242 677z"/>
<path style="fill:#f6dda8; stroke:none;" d="M671 679L671 684L672 684L671 679M242 680L242 683L243 683L242 680M361 680L361 686L362 686L361 680z"/>
<path style="fill:#f1c97c; stroke:none;" d="M800.333 681.667L800.667 682.333L800.333 681.667z"/>
<path style="fill:#f6dda8; stroke:none;" d="M800.333 683.667L800.667 684.333L800.333 683.667z"/>
<path style="fill:#f1c97c; stroke:none;" d="M671 684L671 688L672 688L671 684M361 686L361 696L362 696L361 686M241 688L241 691L242 691L241 688M801.333 688.667L801.667 689.333L801.333 688.667z"/>
<path style="fill:#f6dda8; stroke:none;" d="M801 690L801 693L802 693L801 690M241.333 691.667L241.667 692.333L241.333 691.667M672 692L673 693L672 692z"/>
<path style="fill:#f1c97c; stroke:none;" d="M240.333 699.667L240.667 700.333L240.333 699.667z"/>
<path style="fill:#f6dda8; stroke:none;" d="M240 701L240 704L241 704L240 701M360 702L360 708L361 708L360 702z"/>
<path style="fill:#f1c97c; stroke:none;" d="M360 708L360 718L361 718L360 708M239 709L239 712L240 712L239 709z"/>
<path style="fill:#f6dda8; stroke:none;" d="M239 712L239 715L240 715L239 712z"/>
<path style="fill:#f1c97c; stroke:none;" d="M238 720L238 723L239 723L238 720z"/>
<path style="fill:#f6dda8; stroke:none;" d="M238 723L238 726L239 726L238 723M359 723L359 729L360 729L359 723z"/>
<path style="fill:#f1c97c; stroke:none;" d="M359 729L359 740L360 740L359 729M237 731L237 734L238 734L237 731z"/>
<path style="fill:#f6dda8; stroke:none;" d="M237 734L237 737L238 737L237 734z"/>
<path style="fill:#f1c97c; stroke:none;" d="M236 742L236 745L237 745L236 742z"/>
<path style="fill:#f6dda8; stroke:none;" d="M236.333 745.667L236.667 746.333L236.333 745.667M358 745C359.217 750.68 377.776 748 383 748L463 748L803 748L803 747L482 747L395 747C384.403 747 367.403 750.23 358 745z"/>
<path style="fill:#f1c97c; stroke:none;" d="M803 747L803 751L804 751L803 747M235.333 753.667L235.667 754.333L235.333 753.667z"/>
<path style="fill:#f6dda8; stroke:none;" d="M235 755L235 758L236 758L235 755M802 756L802 759L803 759L802 756z"/>
<path style="fill:#f1c97c; stroke:none;" d="M802 759L802 762L803 762L802 759M234 763L234 766L235 766L234 763z"/>
<path style="fill:#f6dda8; stroke:none;" d="M234 766L234 769L235 769L234 766M801 767L801 770L802 770L801 767z"/>
<path style="fill:#f1c97c; stroke:none;" d="M801 770L801 773L802 773L801 770M233 774L233 777L234 777L233 774z"/>
<path style="fill:#f6dda8; stroke:none;" d="M233 777L233 780L234 780L233 777M800 777L800 781L801 781L800 777z"/>
<path style="fill:#f1c97c; stroke:none;" d="M800 781L800 784L801 784L800 781M232 785L232 788L233 788L232 785z"/>
<path style="fill:#f6dda8; stroke:none;" d="M232 788L232 791L233 791L232 788M799 788L799 792L800 792L799 788z"/>
<path style="fill:#f1c97c; stroke:none;" d="M799.333 792.667L799.667 793.333L799.333 792.667M231 796L231 799L232 799L231 796z"/>
<path style="fill:#f6dda8; stroke:none;" d="M231.333 799.667L231.667 800.333L231.333 799.667M798 799L798 802L799 802L798 799z"/>
<path style="fill:#f1c97c; stroke:none;" d="M798 802L798 805L799 805L798 802M230.333 807.667L230.667 808.333L230.333 807.667z"/>
<path style="fill:#f6dda8; stroke:none;" d="M230 809L230 812L231 812L230 809M797 810L797 813L798 813L797 810z"/>
<path style="fill:#f1c97c; stroke:none;" d="M797 813L797 816L798 816L797 813M229 817L229 820L230 820L229 817z"/>
<path style="fill:#f6dda8; stroke:none;" d="M229 820L229 823L230 823L229 820M796 821L796 824L797 824L796 821z"/>
<path style="fill:#f1c97c; stroke:none;" d="M796 824L796 827L797 827L796 824M228 828L228 831L229 831L228 828z"/>
<path style="fill:#f6dda8; stroke:none;" d="M228 831L228 834L229 834L228 831M795 832L795 835L796 835L795 832z"/>
<path style="fill:#f1c97c; stroke:none;" d="M795 835L795 838L796 838L795 835M227 839L227 842L228 842L227 839z"/>
<path style="fill:#f6dda8; stroke:none;" d="M227 842L227 845L228 845L227 842M794 843L794 846L795 846L794 843z"/>
<path style="fill:#f1c97c; stroke:none;" d="M794 846L794 849L795 849L794 846M226 850L226 853L227 853L226 850z"/>
<path style="fill:#f6dda8; stroke:none;" d="M226.333 853.667L226.667 854.333L226.333 853.667M793 853L793 857L794 857L793 853z"/>
<path style="fill:#f1c97c; stroke:none;" d="M793 857L793 860L794 860L793 857M225.333 861.667L225.667 862.333L225.333 861.667z"/>
<path style="fill:#f6dda8; stroke:none;" d="M225 863L225 866L226 866L225 863M792 864L792 867L793 867L792 864z"/>
<path style="fill:#f1c97c; stroke:none;" d="M792 867L792 870L793 870L792 867M224 871L224 874L225 874L224 871z"/>
<path style="fill:#f6dda8; stroke:none;" d="M224 874L224 876L226 874L224 874z"/>
<path style="fill:#f1c97c; stroke:none;" d="M226 874L226 875L661 875C650.973 870.792 633.896 874 623 874L534 874L226 874z"/>
<path style="fill:#f6dda8; stroke:none;" d="M791 875L791 878L792 878L791 875z"/>
<path style="fill:#f1c97c; stroke:none;" d="M224 876L225 877L224 876M660 876L660 880L661 880L660 876M791 878L791 881L792 881L791 878z"/>
<path style="fill:#f6dda8; stroke:none;" d="M660 880L660 883L661 883L660 880M790 886L790 889L791 889L790 886z"/>
<path style="fill:#f1c97c; stroke:none;" d="M659 888L659 891L660 891L659 888M790 889L790 892L791 892L790 889z"/>
<path style="fill:#f6dda8; stroke:none;" d="M659 891L659 894L660 894L659 891M789 897L789 900L790 900L789 897z"/>
<path style="fill:#f1c97c; stroke:none;" d="M658 899L658 903L659 903L658 899M789 900L789 903L790 903L789 900z"/>
<path style="fill:#f6dda8; stroke:none;" d="M658 903L658 906L659 906L658 903M788 908L788 911L789 911L788 908z"/>
<path style="fill:#f1c97c; stroke:none;" d="M657 911L657 914L658 914L657 911M788 911L788 914L789 914L788 911z"/>
<path style="fill:#f6dda8; stroke:none;" d="M657 914L657 917L658 917L657 914M787 918L787 922L788 922L787 918z"/>
<path style="fill:#f1c97c; stroke:none;" d="M656 922L656 926L657 926L656 922M787 922L787 925L788 925L787 922z"/>
<path style="fill:#f6dda8; stroke:none;" d="M656 926L656 929L657 929L656 926M786 929L786 933L787 933L786 929z"/>
<path style="fill:#f1c97c; stroke:none;" d="M786 933L786 936L787 936L786 933M655 934L655 937L656 937L655 934M230 937L230 938L359 938C348.734 933.692 331.158 937 320 937L230 937z"/>
<path style="fill:#f6dda8; stroke:none;" d="M655 937L655 940L656 940L655 937M358 938L359 939L358 938M785 940L785 943L786 943L785 940M230 941L230 944L231 944L230 941z"/>
<path style="fill:#f1c97c; stroke:none;" d="M359 943L359 946L360 946L359 943M785 943L785 946L786 946L785 943M230 944L230 947L231 947L230 944M654 945L654 949L655 949L654 945z"/>
<path style="fill:#f6dda8; stroke:none;" d="M359 946L359 951L360 951L359 946M654 949L654 952L655 952L654 949M784 951L784 954L785 954L784 951M231 952L231 955L232 955L231 952z"/>
<path style="fill:#f1c97c; stroke:none;" d="M784 954L784 957L785 957L784 954M231.333 955.667L231.667 956.333L231.333 955.667M360 955L360 958L361 958L360 955M653 957L653 960L654 960L653 957z"/>
<path style="fill:#f6dda8; stroke:none;" d="M360 958L360 963L361 963L360 958M653 960L653 963L654 963L653 960M783 962L783 965L784 965L783 962M232 963L232 966L233 966L232 963z"/>
<path style="fill:#f1c97c; stroke:none;" d="M783 965L783 968L784 968L783 965M232.333 966.667L232.667 967.333L232.333 966.667M361 967L361 970L362 970L361 967M652 968L652 972L653 972L652 968z"/>
<path style="fill:#f6dda8; stroke:none;" d="M361 970L361 975L362 975L361 970M652 972L652 975L653 975L652 972M233 973L233 976L234 976L233 973M782 973L782 976L783 976L782 973z"/>
<path style="fill:#f1c97c; stroke:none;" d="M233 976L233 979L234 979L233 976M782 976L782 979L783 979L782 976M362 979L362 982L363 982L362 979M651 980L651 983L652 983L651 980z"/>
<path style="fill:#f6dda8; stroke:none;" d="M362 982L362 986L363 986L362 982M651 983L651 986L652 986L651 983M234 984L234 987L235 987L234 984M781 984L781 987L782 987L781 984z"/>
<path style="fill:#f1c97c; stroke:none;" d="M234 987L234 990L235 990L234 987M781 987L781 990L782 990L781 987M363 991L363 994L364 994L363 991M650 991L650 994L651 994L650 991z"/>
<path style="fill:#f6dda8; stroke:none;" d="M363 994L363 998L364 998L363 994M650 994L650 998L651 998L650 994M780 994L780 998L781 998L780 994M235 995L235 998L236 998L235 995z"/>
<path style="fill:#f1c97c; stroke:none;" d="M235 998L235 1001L236 1001L235 998M780 998L780 1001L781 1001L780 998M364 1003L364 1006L365 1006L364 1003M649 1003L649 1006L650 1006L649 1003z"/>
<path style="fill:#f6dda8; stroke:none;" d="M779 1005L779 1008L780 1008L779 1005M236 1006L236 1009L237 1009L236 1006M364 1006L364 1010L365 1010L364 1006M649 1006L649 1009L650 1009L649 1006z"/>
<path style="fill:#f1c97c; stroke:none;" d="M779 1008L779 1011L780 1011L779 1008M236 1009L236 1012L237 1012L236 1009M648 1014L648 1017L649 1017L648 1014M365 1015L365 1018L366 1018L365 1015z"/>
<path style="fill:#f6dda8; stroke:none;" d="M778 1016L778 1019L779 1019L778 1016M237 1017L237 1020L238 1020L237 1017M648 1017L648 1021L649 1021L648 1017M365 1018L365 1021L366 1021L365 1018z"/>
<path style="fill:#f1c97c; stroke:none;" d="M778 1019L778 1022L779 1022L778 1019M237.333 1020.67L237.667 1021.33L237.333 1020.67M647 1026L647 1029L648 1029L647 1026z"/>
<path style="fill:#f6dda8; stroke:none;" d="M238 1027L238 1030L239 1030L238 1027z"/>
<path style="fill:#f1c97c; stroke:none;" d="M366 1027L366 1030L367 1030L366 1027z"/>
<path style="fill:#f6dda8; stroke:none;" d="M777 1027L777 1030L778 1030L777 1027M647 1029L647 1032L648 1032L647 1029z"/>
<path style="fill:#f1c97c; stroke:none;" d="M238 1030L238 1033L239 1033L238 1030z"/>
<path style="fill:#f6dda8; stroke:none;" d="M366 1030L366 1033L367 1033L366 1030z"/>
<path style="fill:#f1c97c; stroke:none;" d="M777 1030L777 1033L778 1033L777 1030M367 1036L368 1037L367 1036z"/>
<path style="fill:#f6dda8; stroke:none;" d="M369.667 1037.33L370.333 1037.67L369.667 1037.33z"/>
<path style="fill:#f1c97c; stroke:none;" d="M644 1037L645 1038L644 1037z"/>
<path style="fill:#f6dda8; stroke:none;" d="M645.667 1037.33L646.333 1037.67L645.667 1037.33M239 1038L239 1041L240 1041L239 1038M373 1038L374 1039L373 1038z"/>
<path style="fill:#f1c97c; stroke:none;" d="M374 1038L375 1039L374 1038M641 1038L642 1039L641 1038z"/>
<path style="fill:#f6dda8; stroke:none;" d="M642 1038L643 1039L642 1038M776 1038L776 1041L777 1041L776 1038M376.667 1039.33L377.333 1039.67L376.667 1039.33z"/>
<path style="fill:#f1c97c; stroke:none;" d="M637 1039L638 1040L637 1039z"/>
<path style="fill:#f6dda8; stroke:none;" d="M638.667 1039.33L639.333 1039.67L638.667 1039.33M380 1040L381 1041L380 1040z"/>
<path style="fill:#f1c97c; stroke:none;" d="M381 1040L382 1041L381 1040M634 1040L635 1041L634 1040z"/>
<path style="fill:#f6dda8; stroke:none;" d="M635 1040L636 1041L635 1040z"/>
<path style="fill:#f1c97c; stroke:none;" d="M239 1041L239 1044L240 1044L239 1041z"/>
<path style="fill:#f6dda8; stroke:none;" d="M383 1041L384 1042L383 1041z"/>
<path style="fill:#f1c97c; stroke:none;" d="M384 1041L385 1042L384 1041M630.667 1041.33L631.333 1041.67L630.667 1041.33z"/>
<path style="fill:#f6dda8; stroke:none;" d="M632 1041L633 1042L632 1041z"/>
<path style="fill:#f1c97c; stroke:none;" d="M776 1041L776 1044L777 1044L776 1041z"/>
<path style="fill:#f6dda8; stroke:none;" d="M387 1042L388 1043L387 1042z"/>
<path style="fill:#f1c97c; stroke:none;" d="M388 1042L389 1043L388 1042M627 1042L628 1043L627 1042z"/>
<path style="fill:#f6dda8; stroke:none;" d="M628 1042L629 1043L628 1042M390 1043L391 1044L390 1043z"/>
<path style="fill:#f1c97c; stroke:none;" d="M391 1043L392 1044L391 1043M623.667 1043.33L624.333 1043.67L623.667 1043.33z"/>
<path style="fill:#f6dda8; stroke:none;" d="M625 1043L626 1044L625 1043M394 1044L395 1045L394 1044z"/>
<path style="fill:#f1c97c; stroke:none;" d="M395 1044L396 1045L395 1044M620 1044L621 1045L620 1044z"/>
<path style="fill:#f6dda8; stroke:none;" d="M621 1044L622 1045L621 1044M397 1045L398 1046L397 1045z"/>
<path style="fill:#f1c97c; stroke:none;" d="M398 1045L399 1046L398 1045M617 1045L618 1046L617 1045z"/>
<path style="fill:#f6dda8; stroke:none;" d="M618 1045L619 1046L618 1045M401 1046L402 1047L401 1046z"/>
<path style="fill:#f1c97c; stroke:none;" d="M402 1046L403 1047L402 1046M613 1046L614 1047L613 1046z"/>
<path style="fill:#f6dda8; stroke:none;" d="M614.667 1046.33L615.333 1046.67L614.667 1046.33M404 1047L405 1048L404 1047z"/>
<path style="fill:#f1c97c; stroke:none;" d="M405 1047L406 1048L405 1047M610 1047L611 1048L610 1047z"/>
<path style="fill:#f6dda8; stroke:none;" d="M611 1047L612 1048L611 1047M408 1048L409 1049L408 1048z"/>
<path style="fill:#f1c97c; stroke:none;" d="M409 1048L410 1049L409 1048M606 1048L607 1049L606 1048z"/>
<path style="fill:#f6dda8; stroke:none;" d="M607.667 1048.33L608.333 1048.67L607.667 1048.33M240 1049L240 1052L241 1052L240 1049M411 1049L412 1050L411 1049z"/>
<path style="fill:#f1c97c; stroke:none;" d="M412 1049L413 1050L412 1049M603 1049L604 1050L603 1049z"/>
<path style="fill:#f6dda8; stroke:none;" d="M604 1049L605 1050L604 1049M775 1049L775 1052L776 1052L775 1049M414.667 1050.33L415.333 1050.67L414.667 1050.33z"/>
<path style="fill:#f1c97c; stroke:none;" d="M599 1050L600 1051L599 1050z"/>
<path style="fill:#f6dda8; stroke:none;" d="M600.667 1050.33L601.333 1050.67L600.667 1050.33M418 1051L419 1052L418 1051z"/>
<path style="fill:#f1c97c; stroke:none;" d="M419 1051L420 1052L419 1051M596 1051L597 1052L596 1051z"/>
<path style="fill:#f6dda8; stroke:none;" d="M597 1051L598 1052L597 1051z"/>
<path style="fill:#f1c97c; stroke:none;" d="M240 1052L240 1055L241 1055L240 1052z"/>
<path style="fill:#f6dda8; stroke:none;" d="M421.667 1052.33L422.333 1052.67L421.667 1052.33z"/>
<path style="fill:#f1c97c; stroke:none;" d="M592 1052L593 1053L592 1052z"/>
<path style="fill:#f6dda8; stroke:none;" d="M593.667 1052.33L594.333 1052.67L593.667 1052.33z"/>
<path style="fill:#f1c97c; stroke:none;" d="M775 1052L775 1055L776 1055L775 1052z"/>
<path style="fill:#f6dda8; stroke:none;" d="M425 1053L426 1054L425 1053z"/>
<path style="fill:#f1c97c; stroke:none;" d="M426 1053L427 1054L426 1053M589 1053L590 1054L589 1053z"/>
<path style="fill:#f6dda8; stroke:none;" d="M590 1053L591 1054L590 1053M428.667 1054.33L429.333 1054.67L428.667 1054.33z"/>
<path style="fill:#f1c97c; stroke:none;" d="M585 1054L586 1055L585 1054z"/>
<path style="fill:#f6dda8; stroke:none;" d="M586.667 1054.33L587.333 1054.67L586.667 1054.33M432 1055L433 1056L432 1055z"/>
<path style="fill:#f1c97c; stroke:none;" d="M433 1055L434 1056L433 1055M582 1055L583 1056L582 1055z"/>
<path style="fill:#f6dda8; stroke:none;" d="M583 1055L584 1056L583 1055M435.667 1056.33L436.333 1056.67L435.667 1056.33z"/>
<path style="fill:#f1c97c; stroke:none;" d="M578 1056L579 1057L578 1056z"/>
<path style="fill:#f6dda8; stroke:none;" d="M579.667 1056.33L580.333 1056.67L579.667 1056.33M439 1057L440 1058L439 1057z"/>
<path style="fill:#f1c97c; stroke:none;" d="M440 1057L441 1058L440 1057M575 1057L576 1058L575 1057z"/>
<path style="fill:#f6dda8; stroke:none;" d="M576 1057L577 1058L576 1057M442 1058L443 1059L442 1058z"/>
<path style="fill:#f1c97c; stroke:none;" d="M443 1058L444 1059L443 1058M571 1058L572 1059L571 1058z"/>
<path style="fill:#f6dda8; stroke:none;" d="M572.667 1058.33L573.333 1058.67L572.667 1058.33M446 1059L447 1060L446 1059z"/>
<path style="fill:#f1c97c; stroke:none;" d="M447 1059L448 1060L447 1059M568 1059L569 1060L568 1059z"/>
<path style="fill:#f6dda8; stroke:none;" d="M569 1059L570 1060L569 1059M774 1059L774 1063L775 1063L774 1059M241 1060L241 1063L242 1063L241 1060M449 1060L450 1061L449 1060z"/>
<path style="fill:#f1c97c; stroke:none;" d="M450 1060L451 1061L450 1060M564 1060L565 1061L564 1060z"/>
<path style="fill:#f6dda8; stroke:none;" d="M565.667 1060.33L566.333 1060.67L565.667 1060.33M453 1061L454 1062L453 1061z"/>
<path style="fill:#f1c97c; stroke:none;" d="M454 1061L455 1062L454 1061M561 1061L562 1062L561 1061z"/>
<path style="fill:#f6dda8; stroke:none;" d="M562 1061L563 1062L562 1061M456 1062L457 1063L456 1062z"/>
<path style="fill:#f1c97c; stroke:none;" d="M457 1062L458 1063L457 1062M557.667 1062.33L558.333 1062.67L557.667 1062.33z"/>
<path style="fill:#f6dda8; stroke:none;" d="M559 1062L560 1063L559 1062z"/>
<path style="fill:#f1c97c; stroke:none;" d="M241 1063L241 1066L242 1066L241 1063z"/>
<path style="fill:#f6dda8; stroke:none;" d="M459.667 1063.33L460.333 1063.67L459.667 1063.33z"/>
<path style="fill:#f1c97c; stroke:none;" d="M554 1063L555 1064L554 1063z"/>
<path style="fill:#f6dda8; stroke:none;" d="M555 1063L556 1064L555 1063z"/>
<path style="fill:#f1c97c; stroke:none;" d="M774 1063L774 1066L775 1066L774 1063z"/>
<path style="fill:#f6dda8; stroke:none;" d="M463 1064L464 1065L463 1064z"/>
<path style="fill:#f1c97c; stroke:none;" d="M464 1064L465 1065L464 1064M550.667 1064.33L551.333 1064.67L550.667 1064.33z"/>
<path style="fill:#f6dda8; stroke:none;" d="M552 1064L553 1065L552 1064M466.667 1065.33L467.333 1065.67L466.667 1065.33z"/>
<path style="fill:#f1c97c; stroke:none;" d="M547 1065L548 1066L547 1065z"/>
<path style="fill:#f6dda8; stroke:none;" d="M548 1065L549 1066L548 1065M470 1066L471 1067L470 1066z"/>
<path style="fill:#f1c97c; stroke:none;" d="M471 1066L472 1067L471 1066M544 1066L545 1067L544 1066z"/>
<path style="fill:#f6dda8; stroke:none;" d="M545 1066L546 1067L545 1066M473.667 1067.33L474.333 1067.67L473.667 1067.33z"/>
<path style="fill:#f1c97c; stroke:none;" d="M540 1067L541 1068L540 1067z"/>
<path style="fill:#f6dda8; stroke:none;" d="M541.667 1067.33L542.333 1067.67L541.667 1067.33M477 1068L478 1069L477 1068z"/>
<path style="fill:#f1c97c; stroke:none;" d="M478 1068L479 1069L478 1068M537 1068L538 1069L537 1068z"/>
<path style="fill:#f6dda8; stroke:none;" d="M538 1068L539 1069L538 1068M480.667 1069.33L481.333 1069.67L480.667 1069.33z"/>
<path style="fill:#f1c97c; stroke:none;" d="M533 1069L534 1070L533 1069z"/>
<path style="fill:#f6dda8; stroke:none;" d="M534.667 1069.33L535.333 1069.67L534.667 1069.33M484 1070L485 1071L484 1070z"/>
<path style="fill:#f1c97c; stroke:none;" d="M485 1070L486 1071L485 1070M530 1070L531 1071L530 1070z"/>
<path style="fill:#f6dda8; stroke:none;" d="M531 1070L532 1071L531 1070M773 1070L773 1074L774 1074L773 1070M242 1071L242 1074L243 1074L242 1071M487.667 1071.33L488.333 1071.67L487.667 1071.33z"/>
<path style="fill:#f1c97c; stroke:none;" d="M526 1071L527 1072L526 1071z"/>
<path style="fill:#f6dda8; stroke:none;" d="M527.667 1071.33L528.333 1071.67L527.667 1071.33M491 1072L492 1073L491 1072z"/>
<path style="fill:#f1c97c; stroke:none;" d="M492 1072L493 1073L492 1072M523 1072L524 1073L523 1072z"/>
<path style="fill:#f6dda8; stroke:none;" d="M524 1072L525 1073L524 1072M494 1073L495 1074L494 1073z"/>
<path style="fill:#f1c97c; stroke:none;" d="M495 1073L496 1074L495 1073M519 1073L520 1074L519 1073z"/>
<path style="fill:#f6dda8; stroke:none;" d="M520.667 1073.33L521.333 1073.67L520.667 1073.33z"/>
<path style="fill:#f1c97c; stroke:none;" d="M242.333 1074.67L242.667 1075.33L242.333 1074.67z"/>
<path style="fill:#f6dda8; stroke:none;" d="M498 1074L499 1075L498 1074z"/>
<path style="fill:#f1c97c; stroke:none;" d="M499 1074L500 1075L499 1074M516 1074L517 1075L516 1074z"/>
<path style="fill:#f6dda8; stroke:none;" d="M517 1074L518 1075L517 1074z"/>
<path style="fill:#f1c97c; stroke:none;" d="M773 1074L773 1077L774 1077L773 1074z"/>
<path style="fill:#f6dda8; stroke:none;" d="M501 1075L502 1076L501 1075z"/>
<path style="fill:#f1c97c; stroke:none;" d="M502 1075L503 1076L502 1075M512 1075L513 1076L512 1075z"/>
<path style="fill:#f6dda8; stroke:none;" d="M513.667 1075.33L514.333 1075.67L513.667 1075.33M505 1076L506 1077L505 1076z"/>
<path style="fill:#f1c97c; stroke:none;" d="M506 1076L507 1077L506 1076M509 1076L510 1077L509 1076z"/>
<path style="fill:#f6dda8; stroke:none;" d="M510 1076L511 1077L510 1076M243 1081L243 1085L244 1085L243 1081M772 1081L772 1084L773 1084L772 1081z"/>
<path style="fill:#f1c97c; stroke:none;" d="M772 1084L772 1087L773 1087L772 1084M243.333 1085.67L243.667 1086.33L243.333 1085.67z"/>
<path style="fill:#f6dda8; stroke:none;" d="M244 1092L244 1095L245 1095L244 1092M771 1092L771 1095L772 1095L771 1092z"/>
<path style="fill:#f1c97c; stroke:none;" d="M244 1095L244 1098L245 1098L244 1095M771 1095L771 1098L772 1098L771 1095z"/>
<path style="fill:#f6dda8; stroke:none;" d="M245 1103L245 1106L246 1106L245 1103M770 1103L770 1106L771 1106L770 1103z"/>
<path style="fill:#f1c97c; stroke:none;" d="M245 1106L245 1109L246 1109L245 1106M770 1106L770 1109L771 1109L770 1106z"/>
<path style="fill:#f6dda8; stroke:none;" d="M246 1114L246 1117L247 1117L246 1114M769 1114L769 1117L770 1117L769 1114z"/>
<path style="fill:#f1c97c; stroke:none;" d="M246 1117L246 1120L247 1120L246 1117M769 1117L769 1120L770 1120L769 1117z"/>
<path style="fill:#f6dda8; stroke:none;" d="M247 1125L247 1128L248 1128L247 1125M768 1125L768 1128L769 1128L768 1125z"/>
<path style="fill:#f1c97c; stroke:none;" d="M247.333 1128.67L247.667 1129.33L247.333 1128.67M768 1128L768 1131L769 1131L768 1128z"/>
<path style="fill:#f6dda8; stroke:none;" d="M248 1135L249 1136L248 1135M767 1135L768 1136L767 1135M251.667 1136.33L252.333 1136.67L251.667 1136.33M763.667 1136.33L764.333 1136.67L763.667 1136.33z"/>
<path style="fill:#f1c97c; stroke:none;" d="M765 1136L766 1137L765 1136M254 1137L255 1138L254 1137z"/>
<path style="fill:#f6dda8; stroke:none;" d="M255 1137L256 1138L255 1137M760 1137L761 1138L760 1137z"/>
<path style="fill:#f1c97c; stroke:none;" d="M761 1137L762 1138L761 1137z"/>
<path style="fill:#f6dda8; stroke:none;" d="M258.667 1138.33L259.333 1138.67L258.667 1138.33M756.667 1138.33L757.333 1138.67L756.667 1138.33z"/>
<path style="fill:#f1c97c; stroke:none;" d="M758 1138L759 1139L758 1138M261 1139L262 1140L261 1139z"/>
<path style="fill:#f6dda8; stroke:none;" d="M262 1139L263 1140L262 1139M753 1139L754 1140L753 1139z"/>
<path style="fill:#f1c97c; stroke:none;" d="M754 1139L755 1140L754 1139M265 1140L266 1141L265 1140z"/>
<path style="fill:#f6dda8; stroke:none;" d="M266 1140L267 1141L266 1140M749.667 1140.33L750.333 1140.67L749.667 1140.33z"/>
<path style="fill:#f1c97c; stroke:none;" d="M751 1140L752 1141L751 1140M268 1141L269 1142L268 1141z"/>
<path style="fill:#f6dda8; stroke:none;" d="M269 1141L270 1142L269 1141M746 1141L747 1142L746 1141z"/>
<path style="fill:#f1c97c; stroke:none;" d="M747 1141L748 1142L747 1141M272 1142L273 1143L272 1142z"/>
<path style="fill:#f6dda8; stroke:none;" d="M273 1142L274 1143L273 1142M742.667 1142.33L743.333 1142.67L742.667 1142.33z"/>
<path style="fill:#f1c97c; stroke:none;" d="M744 1142L745 1143L744 1142M275 1143L276 1144L275 1143z"/>
<path style="fill:#f6dda8; stroke:none;" d="M276 1143L277 1144L276 1143M739 1143L740 1144L739 1143z"/>
<path style="fill:#f1c97c; stroke:none;" d="M740 1143L741 1144L740 1143M279 1144L280 1145L279 1144z"/>
<path style="fill:#f6dda8; stroke:none;" d="M280 1144L281 1145L280 1144M735.667 1144.33L736.333 1144.67L735.667 1144.33z"/>
<path style="fill:#f1c97c; stroke:none;" d="M737 1144L738 1145L737 1144M282 1145L283 1146L282 1145z"/>
<path style="fill:#f6dda8; stroke:none;" d="M283 1145L284 1146L283 1145M732 1145L733 1146L732 1145z"/>
<path style="fill:#f1c97c; stroke:none;" d="M733 1145L734 1146L733 1145M286 1146L287 1147L286 1146z"/>
<path style="fill:#f6dda8; stroke:none;" d="M287 1146L288 1147L287 1146M728.667 1146.33L729.333 1146.67L728.667 1146.33z"/>
<path style="fill:#f1c97c; stroke:none;" d="M730 1146L731 1147L730 1146M289 1147L290 1148L289 1147z"/>
<path style="fill:#f6dda8; stroke:none;" d="M290 1147L291 1148L290 1147M725 1147L726 1148L725 1147z"/>
<path style="fill:#f1c97c; stroke:none;" d="M726 1147L727 1148L726 1147M293 1148L294 1149L293 1148z"/>
<path style="fill:#f6dda8; stroke:none;" d="M294 1148L295 1149L294 1148M721 1148L722 1149L721 1148z"/>
<path style="fill:#f1c97c; stroke:none;" d="M722.667 1148.33L723.333 1148.67L722.667 1148.33M296 1149L297 1150L296 1149z"/>
<path style="fill:#f6dda8; stroke:none;" d="M297 1149L298 1150L297 1149M718 1149L719 1150L718 1149z"/>
<path style="fill:#f1c97c; stroke:none;" d="M719 1149L720 1150L719 1149M300 1150L301 1151L300 1150z"/>
<path style="fill:#f6dda8; stroke:none;" d="M301 1150L302 1151L301 1150M714 1150L715 1151L714 1150z"/>
<path style="fill:#f1c97c; stroke:none;" d="M715.667 1150.33L716.333 1150.67L715.667 1150.33M303 1151L304 1152L303 1151z"/>
<path style="fill:#f6dda8; stroke:none;" d="M304 1151L305 1152L304 1151M711 1151L712 1152L711 1151z"/>
<path style="fill:#f1c97c; stroke:none;" d="M712 1151L713 1152L712 1151M307 1152L308 1153L307 1152z"/>
<path style="fill:#f6dda8; stroke:none;" d="M308 1152L309 1153L308 1152M707 1152L708 1153L707 1152z"/>
<path style="fill:#f1c97c; stroke:none;" d="M708.667 1152.33L709.333 1152.67L708.667 1152.33M310 1153L311 1154L310 1153z"/>
<path style="fill:#f6dda8; stroke:none;" d="M311 1153L312 1154L311 1153M703.667 1153.33L704.333 1153.67L703.667 1153.33z"/>
<path style="fill:#f1c97c; stroke:none;" d="M705 1153L706 1154L705 1153M314 1154L315 1155L314 1154z"/>
<path style="fill:#f6dda8; stroke:none;" d="M315 1154L316 1155L315 1154M700 1154L701 1155L700 1154z"/>
<path style="fill:#f1c97c; stroke:none;" d="M701 1154L702 1155L701 1154z"/>
<path style="fill:#f6dda8; stroke:none;" d="M318.667 1155.33L319.333 1155.67L318.667 1155.33M696.667 1155.33L697.333 1155.67L696.667 1155.33z"/>
<path style="fill:#f1c97c; stroke:none;" d="M698 1155L699 1156L698 1155M321 1156L322 1157L321 1156z"/>
<path style="fill:#f6dda8; stroke:none;" d="M322 1156L323 1157L322 1156M693 1156L694 1157L693 1156z"/>
<path style="fill:#f1c97c; stroke:none;" d="M694 1156L695 1157L694 1156z"/>
<path style="fill:#f6dda8; stroke:none;" d="M325.667 1157.33L326.333 1157.67L325.667 1157.33M689.667 1157.33L690.333 1157.67L689.667 1157.33z"/>
<path style="fill:#f1c97c; stroke:none;" d="M691 1157L692 1158L691 1157M328 1158L329 1159L328 1158z"/>
<path style="fill:#f6dda8; stroke:none;" d="M329 1158L330 1159L329 1158M686 1158L687 1159L686 1158z"/>
<path style="fill:#f1c97c; stroke:none;" d="M687 1158L688 1159L687 1158z"/>
<path style="fill:#f6dda8; stroke:none;" d="M332.667 1159.33L333.333 1159.67L332.667 1159.33M682.667 1159.33L683.333 1159.67L682.667 1159.33z"/>
<path style="fill:#f1c97c; stroke:none;" d="M684 1159L685 1160L684 1159M335 1160L336 1161L335 1160z"/>
<path style="fill:#f6dda8; stroke:none;" d="M336 1160L337 1161L336 1160M679 1160L680 1161L679 1160z"/>
<path style="fill:#f1c97c; stroke:none;" d="M680 1160L681 1161L680 1160M339 1161L340 1162L339 1161z"/>
<path style="fill:#f6dda8; stroke:none;" d="M340 1161L341 1162L340 1161M675.667 1161.33L676.333 1161.67L675.667 1161.33z"/>
<path style="fill:#f1c97c; stroke:none;" d="M677 1161L678 1162L677 1161M342 1162L343 1163L342 1162z"/>
<path style="fill:#f6dda8; stroke:none;" d="M343 1162L344 1163L343 1162M672 1162L673 1163L672 1162z"/>
<path style="fill:#f1c97c; stroke:none;" d="M673 1162L674 1163L673 1162M346 1163L347 1164L346 1163z"/>
<path style="fill:#f6dda8; stroke:none;" d="M347 1163L348 1164L347 1163M668.667 1163.33L669.333 1163.67L668.667 1163.33z"/>
<path style="fill:#f1c97c; stroke:none;" d="M670 1163L671 1164L670 1163M349 1164L350 1165L349 1164z"/>
<path style="fill:#f6dda8; stroke:none;" d="M350 1164L351 1165L350 1164M665 1164L666 1165L665 1164z"/>
<path style="fill:#f1c97c; stroke:none;" d="M666 1164L667 1165L666 1164M353 1165L354 1166L353 1165z"/>
<path style="fill:#f6dda8; stroke:none;" d="M354 1165L355 1166L354 1165M661.667 1165.33L662.333 1165.67L661.667 1165.33z"/>
<path style="fill:#f1c97c; stroke:none;" d="M663 1165L664 1166L663 1165M356 1166L357 1167L356 1166z"/>
<path style="fill:#f6dda8; stroke:none;" d="M357 1166L358 1167L357 1166M658 1166L659 1167L658 1166z"/>
<path style="fill:#f1c97c; stroke:none;" d="M659 1166L660 1167L659 1166M360 1167L361 1168L360 1167z"/>
<path style="fill:#f6dda8; stroke:none;" d="M361 1167L362 1168L361 1167M654.667 1167.33L655.333 1167.67L654.667 1167.33z"/>
<path style="fill:#f1c97c; stroke:none;" d="M656 1167L657 1168L656 1167M363 1168L364 1169L363 1168z"/>
<path style="fill:#f6dda8; stroke:none;" d="M364 1168L365 1169L364 1168M651 1168L652 1169L651 1168z"/>
<path style="fill:#f1c97c; stroke:none;" d="M652 1168L653 1169L652 1168M367 1169L368 1170L367 1169z"/>
<path style="fill:#f6dda8; stroke:none;" d="M368 1169L369 1170L368 1169M647 1169L648 1170L647 1169z"/>
<path style="fill:#f1c97c; stroke:none;" d="M648.667 1169.33L649.333 1169.67L648.667 1169.33M370 1170L371 1171L370 1170z"/>
<path style="fill:#f6dda8; stroke:none;" d="M371 1170L372 1171L371 1170M644 1170L645 1171L644 1170z"/>
<path style="fill:#f1c97c; stroke:none;" d="M645 1170L646 1171L645 1170M374 1171L375 1172L374 1171z"/>
<path style="fill:#f6dda8; stroke:none;" d="M375 1171L376 1172L375 1171M640 1171L641 1172L640 1171z"/>
<path style="fill:#f1c97c; stroke:none;" d="M641.667 1171.33L642.333 1171.67L641.667 1171.33z"/>
<path style="fill:#f6dda8; stroke:none;" d="M378 1172L379 1173L378 1172M637 1172L638 1173L637 1172z"/>
<path style="fill:#f1c97c; stroke:none;" d="M638 1172L639 1173L638 1172M381 1173L382 1174L381 1173z"/>
<path style="fill:#f6dda8; stroke:none;" d="M382 1173L383 1174L382 1173M633 1173L634 1174L633 1173z"/>
<path style="fill:#f1c97c; stroke:none;" d="M634.667 1173.33L635.333 1173.67L634.667 1173.33z"/>
<path style="fill:#f6dda8; stroke:none;" d="M385 1174L386 1175L385 1174M629.667 1174.33L630.333 1174.67L629.667 1174.33z"/>
<path style="fill:#f1c97c; stroke:none;" d="M631 1174L632 1175L631 1174M388 1175L389 1176L388 1175z"/>
<path style="fill:#f6dda8; stroke:none;" d="M389 1175L390 1176L389 1175M626 1175L627 1176L626 1175z"/>
<path style="fill:#f1c97c; stroke:none;" d="M627 1175L628 1176L627 1175z"/>
<path style="fill:#f6dda8; stroke:none;" d="M392.667 1176.33L393.333 1176.67L392.667 1176.33M622.667 1176.33L623.333 1176.67L622.667 1176.33z"/>
<path style="fill:#f1c97c; stroke:none;" d="M624 1176L625 1177L624 1176M395 1177L396 1178L395 1177z"/>
<path style="fill:#f6dda8; stroke:none;" d="M396 1177L397 1178L396 1177M619 1177L620 1178L619 1177z"/>
<path style="fill:#f1c97c; stroke:none;" d="M620 1177L621 1178L620 1177z"/>
<path style="fill:#f6dda8; stroke:none;" d="M399.667 1178.33L400.333 1178.67L399.667 1178.33M615.667 1178.33L616.333 1178.67L615.667 1178.33z"/>
<path style="fill:#f1c97c; stroke:none;" d="M617 1178L618 1179L617 1178M402 1179L403 1180L402 1179z"/>
<path style="fill:#f6dda8; stroke:none;" d="M403 1179L404 1180L403 1179M612 1179L613 1180L612 1179z"/>
<path style="fill:#f1c97c; stroke:none;" d="M613 1179L614 1180L613 1179z"/>
<path style="fill:#f6dda8; stroke:none;" d="M406.667 1180.33L407.333 1180.67L406.667 1180.33M608.667 1180.33L609.333 1180.67L608.667 1180.33z"/>
<path style="fill:#f1c97c; stroke:none;" d="M610 1180L611 1181L610 1180M409 1181L410 1182L409 1181z"/>
<path style="fill:#f6dda8; stroke:none;" d="M410 1181L411 1182L410 1181M605 1181L606 1182L605 1181z"/>
<path style="fill:#f1c97c; stroke:none;" d="M606 1181L607 1182L606 1181M413 1182L414 1183L413 1182z"/>
<path style="fill:#f6dda8; stroke:none;" d="M414 1182L415 1183L414 1182M601.667 1182.33L602.333 1182.67L601.667 1182.33z"/>
<path style="fill:#f1c97c; stroke:none;" d="M603 1182L604 1183L603 1182M416 1183L417 1184L416 1183z"/>
<path style="fill:#f6dda8; stroke:none;" d="M417 1183L418 1184L417 1183M598 1183L599 1184L598 1183z"/>
<path style="fill:#f1c97c; stroke:none;" d="M599 1183L600 1184L599 1183M420 1184L421 1185L420 1184z"/>
<path style="fill:#f6dda8; stroke:none;" d="M421 1184L422 1185L421 1184M594.667 1184.33L595.333 1184.67L594.667 1184.33z"/>
<path style="fill:#f1c97c; stroke:none;" d="M596 1184L597 1185L596 1184M423 1185L424 1186L423 1185z"/>
<path style="fill:#f6dda8; stroke:none;" d="M424 1185L425 1186L424 1185M591 1185L592 1186L591 1185z"/>
<path style="fill:#f1c97c; stroke:none;" d="M592 1185L593 1186L592 1185M427 1186L428 1187L427 1186z"/>
<path style="fill:#f6dda8; stroke:none;" d="M428 1186L429 1187L428 1186M587.667 1186.33L588.333 1186.67L587.667 1186.33z"/>
<path style="fill:#f1c97c; stroke:none;" d="M589 1186L590 1187L589 1186M430 1187L431 1188L430 1187z"/>
<path style="fill:#f6dda8; stroke:none;" d="M431 1187L432 1188L431 1187M584 1187L585 1188L584 1187z"/>
<path style="fill:#f1c97c; stroke:none;" d="M585 1187L586 1188L585 1187M434 1188L435 1189L434 1188z"/>
<path style="fill:#f6dda8; stroke:none;" d="M435 1188L436 1189L435 1188M580.667 1188.33L581.333 1188.67L580.667 1188.33z"/>
<path style="fill:#f1c97c; stroke:none;" d="M582 1188L583 1189L582 1188M437 1189L438 1190L437 1189z"/>
<path style="fill:#f6dda8; stroke:none;" d="M438 1189L439 1190L438 1189M577 1189L578 1190L577 1189z"/>
<path style="fill:#f1c97c; stroke:none;" d="M578 1189L579 1190L578 1189M441 1190L442 1191L441 1190z"/>
<path style="fill:#f6dda8; stroke:none;" d="M442 1190L443 1191L442 1190M573 1190L574 1191L573 1190z"/>
<path style="fill:#f1c97c; stroke:none;" d="M574.667 1190.33L575.333 1190.67L574.667 1190.33z"/>
<path style="fill:#f6dda8; stroke:none;" d="M445 1191L446 1192L445 1191M570 1191L571 1192L570 1191z"/>
<path style="fill:#f1c97c; stroke:none;" d="M571 1191L572 1192L571 1191M448 1192L449 1193L448 1192z"/>
<path style="fill:#f6dda8; stroke:none;" d="M449 1192L450 1193L449 1192M566 1192L567 1193L566 1192z"/>
<path style="fill:#f1c97c; stroke:none;" d="M567.667 1192.33L568.333 1192.67L567.667 1192.33z"/>
<path style="fill:#f6dda8; stroke:none;" d="M452 1193L453 1194L452 1193M563 1193L564 1194L563 1193z"/>
<path style="fill:#f1c97c; stroke:none;" d="M564 1193L565 1194L564 1193M455 1194L456 1195L455 1194z"/>
<path style="fill:#f6dda8; stroke:none;" d="M456 1194L457 1195L456 1194M559 1194L560 1195L559 1194z"/>
<path style="fill:#f1c97c; stroke:none;" d="M560.667 1194.33L561.333 1194.67L560.667 1194.33z"/>
<path style="fill:#f6dda8; stroke:none;" d="M459 1195L460 1196L459 1195M555.667 1195.33L556.333 1195.67L555.667 1195.33z"/>
<path style="fill:#f1c97c; stroke:none;" d="M557 1195L558 1196L557 1195M462 1196L463 1197L462 1196z"/>
<path style="fill:#f6dda8; stroke:none;" d="M463 1196L464 1197L463 1196M552 1196L553 1197L552 1196z"/>
<path style="fill:#f1c97c; stroke:none;" d="M553 1196L554 1197L553 1196z"/>
<path style="fill:#f6dda8; stroke:none;" d="M466 1197L467 1198L466 1197M548.667 1197.33L549.333 1197.67L548.667 1197.33z"/>
<path style="fill:#f1c97c; stroke:none;" d="M550 1197L551 1198L550 1197M469 1198L470 1199L469 1198z"/>
<path style="fill:#f6dda8; stroke:none;" d="M470 1198L471 1199L470 1198M545 1198L546 1199L545 1198z"/>
<path style="fill:#f1c97c; stroke:none;" d="M546 1198L547 1199L546 1198z"/>
<path style="fill:#f6dda8; stroke:none;" d="M473.667 1199.33L474.333 1199.67L473.667 1199.33M541.667 1199.33L542.333 1199.67L541.667 1199.33z"/>
<path style="fill:#f1c97c; stroke:none;" d="M543 1199L544 1200L543 1199M476 1200L477 1201L476 1200z"/>
<path style="fill:#f6dda8; stroke:none;" d="M477 1200L478 1201L477 1200M538 1200L539 1201L538 1200z"/>
<path style="fill:#f1c97c; stroke:none;" d="M539 1200L540 1201L539 1200z"/>
<path style="fill:#f6dda8; stroke:none;" d="M480.667 1201.33L481.333 1201.67L480.667 1201.33M534.667 1201.33L535.333 1201.67L534.667 1201.33z"/>
<path style="fill:#f1c97c; stroke:none;" d="M536 1201L537 1202L536 1201M483 1202L484 1203L483 1202z"/>
<path style="fill:#f6dda8; stroke:none;" d="M484 1202L485 1203L484 1202M531 1202L532 1203L531 1202z"/>
<path style="fill:#f1c97c; stroke:none;" d="M532 1202L533 1203L532 1202z"/>
<path style="fill:#f6dda8; stroke:none;" d="M487.667 1203.33L488.333 1203.67L487.667 1203.33M527.667 1203.33L528.333 1203.67L527.667 1203.33z"/>
<path style="fill:#f1c97c; stroke:none;" d="M529 1203L530 1204L529 1203M490 1204L491 1205L490 1204z"/>
<path style="fill:#f6dda8; stroke:none;" d="M491 1204L492 1205L491 1204M524 1204L525 1205L524 1204z"/>
<path style="fill:#f1c97c; stroke:none;" d="M525 1204L526 1205L525 1204M494 1205L495 1206L494 1205z"/>
<path style="fill:#f6dda8; stroke:none;" d="M495 1205L496 1206L495 1205M520.667 1205.33L521.333 1205.67L520.667 1205.33z"/>
<path style="fill:#f1c97c; stroke:none;" d="M522 1205L523 1206L522 1205M497 1206L498 1207L497 1206z"/>
<path style="fill:#f6dda8; stroke:none;" d="M498 1206L499 1207L498 1206M517 1206L518 1207L517 1206z"/>
<path style="fill:#f1c97c; stroke:none;" d="M518 1206L519 1207L518 1206M501 1207L502 1208L501 1207z"/>
<path style="fill:#f6dda8; stroke:none;" d="M502 1207L503 1208L502 1207M513.667 1207.33L514.333 1207.67L513.667 1207.33z"/>
<path style="fill:#f1c97c; stroke:none;" d="M515 1207L516 1208L515 1207M504 1208L505 1209L504 1208z"/>
<path style="fill:#f6dda8; stroke:none;" d="M505 1208L506 1209L505 1208M510 1208L511 1209L510 1208z"/>
<path style="fill:#f1c97c; stroke:none;" d="M511 1208L512 1209L511 1208M508 1209L509 1210L508 1209z"/>
</svg>
