<?xml version="1.0" standalone="yes"?>
<svg xmlns="http://www.w3.org/2000/svg" width="634" height="344">
<path style="fill:#ffffff; stroke:none;" d="M0 0L0 170L1 170C3.25217 154.75 14.5864 142.592 27 134.356C61.5986 111.401 108.818 119.262 138.996 145.428C156.947 160.992 169.047 184.295 177.799 206C195.613 250.177 202.077 296.133 208 343C191.737 340.598 175.039 332.396 160 326C117.226 307.809 78.3088 283.535 43 253.271C25.1237 237.949 4.31874 216.525 1 192L0 192L0 344L335 344C326.011 327.902 331 301.101 331 283C331 276.239 329.813 266.978 337.019 263.318C345.327 259.099 366.876 260.554 375.999 262.228C380.052 262.972 383.931 266.488 382.377 270.956C379.223 280.027 354.688 276 347 276L347 295C354.71 295 364.551 293.358 371.995 295.434C375.961 296.539 379.304 300.754 376.968 304.852C373.3 311.285 353.516 308 347 308C347 319.581 349.303 333.451 344 344L401 344L401 343C386.09 335.243 390 315.103 390 301C390 295.37 388.738 285.647 396.015 283.712C402.534 281.979 404.746 290.313 404.961 295C405.351 303.523 400.197 330.605 413.001 331.667C419.739 332.225 423.829 325.825 424.699 320C426.046 310.984 420.455 290.466 429.109 284.619C436.016 279.951 439.532 289.884 439.91 295C441.032 310.219 442.354 329.636 437 344L460 344L460 343C447.334 333.805 452 309.863 452 296C442.989 294.594 444.415 286.604 452 284C452 278.68 450.987 271.797 453.938 267.059C457.459 261.407 464.043 263.315 466.258 269.005C467.969 273.4 467 279.354 467 284C479.352 284.574 479.514 295.698 467 296C467 303.45 463.336 324.914 468.742 330.396C472.111 333.811 478.215 329.405 480.953 334.232C483.055 337.939 479.638 340.99 477 343L477 344L495 344L495 343C479.902 335.145 484 315.257 484 301C484 295.557 482.359 286.068 489.044 283.786C495.744 281.499 497.927 289.064 497.996 294C498.115 302.53 493.881 331.012 507.001 331.747C529.18 332.989 511.558 292.629 522.228 284.746C528.498 280.115 532.814 287.571 532.985 293C533.469 308.421 536.303 329.449 531 344L547 344C540.688 331.442 541.66 303.9 544.228 290.004C546.048 280.16 554.702 283.528 558 290C560.711 287.526 563.287 284.367 567 283.448C572.665 282.047 583.688 286.707 581.353 293.981C578.317 303.434 565.678 292.62 560.92 302.044C554.382 314.993 561.965 331.34 555 344L600 344L600 343C578.255 336.541 575.379 301.879 592.04 288.532C606.289 277.118 628.522 284.285 633 302L634 302L634 0L52 0L52 1C100.957 4.89609 131.781 59.069 151.247 98C157.346 110.197 164.832 122.631 168 136L169 136C168.22 98.2012 174.112 55.0174 211 34C222.334 68.8315 219.73 103.48 200.186 135C194.515 144.146 185.927 157.368 176 162L172 147L171 147L170 151C105.772 126.082 37.1348 72.2173 28 0L0 0z"/>
<path style="fill:#91b751; stroke:none;" d="M28 0C32.4745 56.6972 79.0364 100.671 125 128.399C138.886 136.776 154.253 146.693 170 151L171 147L172 147L176 162C185.974 159.199 194.931 144.475 200.186 136C218.404 106.618 225.422 66.5359 211 34C172.971 48.6281 167.547 102.149 169 136C147.594 87.937 122.825 24.2983 69 4.69522C55.4998 -0.221558 42.1379 0 28 0M356 106.439C338.234 109.236 324.124 128.732 338.529 144.699C345.696 152.643 356.78 152.599 366 156.479C370.584 158.408 377.073 163.209 375.214 168.999C372.067 178.797 357.989 180.617 351.329 173.786C347.861 170.229 347.182 164.774 343.606 161.434C341.328 159.305 337.971 158.647 335.228 160.322C328.023 164.722 333.503 177.243 337.39 181.96C345.166 191.394 359.669 192.67 371 190.532C388.643 187.204 398.954 165.053 387.362 150.093C381.339 142.322 369.896 140.364 361 137.845C356.476 136.564 347.713 133.201 348.971 127.004C350.134 121.27 357.855 118.362 363 119.348C371.861 121.045 372.798 134.06 381.011 134.663C391.233 135.414 388.703 121.14 385.146 116.04C379.043 107.291 365.924 104.877 356 106.439M558 137C554.974 134.131 552.011 131.503 548 130.109C507.607 116.066 505.204 199.782 546 190.606C550.743 189.54 554.514 186.18 558 183C558.672 189.013 566.42 195.247 570.682 187.852C573.647 182.707 572 173.733 572 168L572 129C572 123.509 573.217 116.223 571.107 111.044C568.95 105.751 561.464 104.392 558.858 110.109C555.662 117.122 558 129.365 558 137z"/>
<path style="fill:#996d4b; stroke:none;" d="M213 343C227.459 336.257 239.828 316.595 249.116 304C275.823 267.782 299.951 224.74 308.389 180C312.003 160.838 312.375 136.182 297.7 121.289C269.942 93.1204 220.272 114.65 202.09 143C189.12 163.223 188.41 188.898 191.285 212C196.738 255.829 211.093 298.592 213 343M208 343C202.889 278.242 190.006 196.657 142.83 148.09C109.024 113.286 37.0552 108.394 7.74923 152C-11.2895 180.329 5.55114 215.943 26.0895 238C61.082 275.581 108.174 304.075 155 324.281C171.159 331.254 190.297 341.454 208 343z"/>
<path style="fill:#91b751; stroke:none;" d="M413 164C421.368 164 443.281 167.867 449.436 161.486C453.632 157.136 451.438 148.897 449.532 144C444.161 130.193 427.227 125.385 414 130.765C388.958 140.949 393.197 189.558 422 190.96C429.591 191.329 458.817 186.559 449.806 172.318C445.413 165.375 436.745 175.575 433 177.852C422.509 184.23 414.446 173.648 413 164M473 164C481.212 164 503.384 167.872 509.258 161.347C512.626 157.606 511.125 149.251 509.612 145C504.661 131.09 488.55 125.462 475 130.108C448.519 139.189 452.437 189.617 482 190.961C490.993 191.369 501.296 190.797 507.196 182.907C509.216 180.205 511.446 174.727 508.972 171.603C504.823 166.364 497.213 174.845 494 177.007C483.208 184.27 473.974 175.069 473 164M595 129.529C583.051 132.287 575.238 146.251 583.8 156.699C588.848 162.859 596.905 163.949 604 166.356C607.562 167.564 613.876 169.998 612.427 174.96C607.246 192.692 589.167 163.896 582.318 169.604C577.23 173.844 581.257 182.209 585.105 185.66C591.94 191.789 604.372 192.451 613 190.471C624.753 187.773 633.449 172.927 625.347 162.093C620.809 156.025 612.83 154.341 606 152.28C602.551 151.239 594.264 149.309 595.613 144.103C599.162 130.4 616.235 153.11 622.771 148.254C628.299 144.146 624.114 136.826 619.956 133.558C613.597 128.56 602.688 127.755 595 129.529z"/>
<path style="fill:#ffffff; stroke:none;" d="M169.333 137.667L169.667 138.333L169.333 137.667M413 155L437 155C435.314 135.811 416.609 137.743 413 155M473 155L497 155C493.426 137.74 474.688 135.788 473 155M542 141.588C525.881 145.719 529.151 183.33 546.996 178.106C562.605 173.536 559.35 137.142 542 141.588M170.333 142.667L170.667 143.333L170.333 142.667z"/>
<path style="fill:#996d4b; stroke:none;" d="M480 225L476 225C476.263 228.41 476.679 229.901 480 231C480 234.875 477.668 257.191 485.701 254.288C490.398 252.59 488 235.252 488 231C494.534 230.491 494.534 225.509 488 225C489.106 221.265 495.981 219.424 495.534 216.119C494.945 211.77 486.749 212.642 484.148 214.179C480.568 216.295 480.469 221.315 480 225M581 227C581 224.907 579.222 205.967 574.603 215.319C571.333 221.94 574 235.648 574 243C574 246.018 572.651 253.976 577.089 254.534C584.856 255.51 577.701 228.181 587.787 232.256C593.677 234.636 590.028 246.255 591.318 250.941C592.057 253.629 594.956 255.676 597.397 253.377C600.014 250.913 599 245.217 599 242C599 230.613 594.306 218.218 581 227M558 225C556.38 225.456 554.586 225.795 554.815 228.023C555.045 230.268 557.264 231.836 557.782 234.06C559.089 239.663 555.494 249.023 560.417 253.37C565.673 258.013 572.705 254.139 573 248L566 248L566 231C569.911 230.348 570.7 228.864 571 225L566 225C565.99 212.676 558.01 212.676 558 225M502.004 224.653C484.948 230.06 493.341 260.614 511.985 254.146C528.856 248.293 520.498 218.789 502.004 224.653M531 227C528.953 223.889 525.446 223.952 524.318 228.059C523.073 232.589 521.969 250.043 525.603 253.353C532.805 259.913 532.056 236.742 533.819 234.268C536.02 231.178 542.01 233.203 543.11 229.698C545.471 222.17 533.774 225.006 531 227M628 244C619.859 244.608 615.233 251.962 610 242C614.656 242 622.65 243.513 626.682 240.821C633.319 236.39 625.215 225.866 619.999 224.434C604.94 220.299 596.382 239.953 605.649 250.66C612.896 259.032 627.635 255.227 628 244z"/>
<path style="fill:#ffffff; stroke:none;" d="M506.04 231.086C498.468 232.537 499.359 249.167 507.949 247.623C515.54 246.26 514.43 229.479 506.04 231.086M610 237L621 237C619.285 228.599 612.306 229.423 610 237z"/>
<path style="fill:#996d4b; stroke:none;" d="M347 308C353.458 308 371.661 311.136 376.397 306.397C379.973 302.818 377.309 296.671 372.981 295.434C365.305 293.239 354.965 295 347 295L347 276C356.576 276 367.58 277.52 376.995 275.772C381.797 274.88 384.701 269.71 381.972 265.228C379.567 261.279 373.939 262.002 370 262C360.928 261.996 336.044 257.557 332.032 268.019C326.367 282.793 331 307.214 331 323C331 328.5 329.543 337.219 333.564 341.682C337.294 345.822 345.033 344.345 346.566 338.981C349.163 329.897 347 317.437 347 308M452 284C443.345 285.762 442.499 295.276 452 296C452 307.924 448.187 328.477 454.858 338.956C459.118 345.648 479.56 347.665 481.663 337.988C483.799 328.156 470.451 334.403 467.742 327.941C464.223 319.546 467 305.062 467 296C480.119 295.881 479.987 284.278 467 284C467 279.109 468.099 272.63 466.258 268.019C464.225 262.929 457.233 261.254 453.938 266.148C450.744 270.893 452 278.582 452 284M426 336C426.644 344.511 437.025 347.242 439.316 337.995C442.482 325.214 441.255 306.085 439.826 293C439.22 287.441 434.741 279.618 428.228 284.604C420.181 290.765 426.514 311.957 424.316 321C423.14 325.836 418.73 332.02 413.001 331.353C399.408 329.768 406.15 299.976 404.695 291.001C403.767 285.276 397.592 280.01 392.434 285.318C387.893 289.99 390 301.016 390 307C390 316.014 388.151 327.707 392.453 335.996C399.533 349.641 417.471 344.329 426 336M520 336C520.418 343.612 531.016 348.196 532.772 338.981C535.477 324.778 534.521 304.38 532.891 290.004C532.273 284.553 526.224 280.678 521.434 284.742C514.703 290.452 519.79 312.54 517.876 321C516.786 325.817 512.757 332.007 507.001 331.468C492.96 330.155 498.907 298.965 497.891 290.004C497.273 284.553 491.224 280.678 486.434 284.742C481.659 288.793 484 301.357 484 307C484 315.394 482.248 326.097 485.483 334C491.778 349.376 510.531 345.03 520 336M558 290C556.03 284.498 548.185 279.105 544.742 287.109C540.274 297.498 544 316.706 544 328C544 332.096 542.931 338.274 545.742 341.682C549.167 345.834 556.368 343.995 557.682 338.981C560.763 327.225 554.472 311.888 561.995 301.109C566.668 294.413 585.144 303.286 581.562 290.043C578.396 278.34 562.982 283.62 558 290M596 318C604.654 318 625.001 321.726 631.682 315.486C635.863 311.581 634.126 302.65 632.235 298C627.083 285.331 612.62 280.296 600 284.044C574.732 291.547 574.09 341.535 603 343.907C612.137 344.656 621.948 344.646 628.891 337.815C631.866 334.888 635.19 328.319 631.397 324.607C626.053 319.378 618.321 330.416 614 332.424C603.49 337.308 598.675 325.699 596 318z"/>
<path style="fill:#ffffff; stroke:none;" d="M596 309L620 309C619.188 299.758 610.696 288.851 601.225 297.419C597.961 300.371 597.149 304.953 596 309M633 314C623.599 321.166 607.322 318 596 318C598.449 327.363 604.55 338.411 616 331.91C619.756 329.778 624.076 322.838 628.941 323.832C641.506 326.398 623.648 341.516 619 343L619 344L634 344L633 314M425 336L416 343L416 344L429 344L425 336M519 336L509 343L509 344L522 344L519 336z"/>
</svg>
