<svg id="svg" version="1.1" xmlns="http://www.w3.org/2000/svg" xmlns:xlink="http://www.w3.org/1999/xlink" width="400" height="400" viewBox="0, 0, 400,400"><g id="svgg"><path id="path0" d="M371.960 84.375 C 371.956 84.912,372.094 85.791,372.266 86.328 C 372.686 87.641,372.686 86.223,372.266 84.570 C 371.998 83.518,371.967 83.498,371.960 84.375 M373.138 91.016 C 373.138 91.768,373.218 92.075,373.316 91.699 C 373.414 91.323,373.414 90.708,373.316 90.332 C 373.218 89.956,373.138 90.264,373.138 91.016 M373.536 93.945 C 373.540 94.805,373.620 95.110,373.714 94.624 C 373.807 94.138,373.804 93.435,373.706 93.062 C 373.608 92.688,373.532 93.086,373.536 93.945 M25.966 96.279 C 25.812 98.130,25.771 99.729,25.874 99.833 C 25.978 99.936,26.186 98.504,26.336 96.649 C 26.487 94.794,26.528 93.195,26.428 93.095 C 26.328 92.995,26.120 94.428,25.966 96.279 M373.578 96.094 C 373.681 96.416,373.875 98.042,374.008 99.707 L 374.251 102.734 254.730 102.734 L 135.208 102.734 135.085 103.771 C 134.983 104.621,68.664 135.156,66.921 135.156 C 66.853 135.156,66.797 132.455,66.797 129.153 L 66.797 123.149 84.863 115.229 C 94.800 110.873,105.175 106.323,107.920 105.119 L 112.911 102.930 69.371 102.830 L 25.830 102.731 25.696 101.463 C 25.139 96.206,24.965 125.846,25.086 205.664 C 25.239 307.208,25.128 302.315,27.557 314.362 C 33.767 345.163,57.377 367.781,88.792 373.024 C 99.400 374.795,96.213 374.739,194.922 374.897 C 307.229 375.077,307.332 375.073,322.777 370.290 C 351.461 361.407,369.934 337.512,374.097 303.906 C 375.564 292.066,375.261 97.419,373.774 95.898 C 373.521 95.641,373.455 95.707,373.578 96.094 M208.203 146.875 L 208.203 150.391 174.609 150.391 L 141.016 150.391 141.016 146.875 L 141.016 143.359 174.609 143.359 L 208.203 143.359 208.203 146.875 " stroke="none" fill="#2f2f2f" fill-rule="evenodd"></path><path id="path1" d="M66.884 70.170 L 66.992 75.887 93.848 87.645 C 108.618 94.112,120.703 99.495,120.703 99.606 C 120.703 99.718,108.618 105.106,93.848 111.579 L 66.992 123.350 66.884 129.058 C 66.825 132.197,66.883 134.766,67.014 134.766 C 67.194 134.766,128.129 107.615,133.691 105.056 L 134.766 104.562 134.766 99.619 L 134.766 94.676 133.496 94.076 C 129.796 92.326,67.265 64.453,67.041 64.453 C 66.895 64.453,66.825 67.026,66.884 70.170 M141.016 147.070 L 141.016 150.391 174.609 150.391 L 208.203 150.391 208.203 147.070 L 208.203 143.750 174.609 143.750 L 141.016 143.750 141.016 147.070 " stroke="none" fill="#fafafa" fill-rule="evenodd"></path><path id="path2" d="M134.570 99.609 C 134.570 102.576,134.702 104.922,134.863 104.822 C 135.024 104.723,135.156 102.377,135.156 99.609 C 135.156 96.842,135.024 94.496,134.863 94.396 C 134.702 94.297,134.570 96.643,134.570 99.609 M157.715 143.652 C 167.007 143.711,182.212 143.711,191.504 143.652 C 200.796 143.594,193.193 143.546,174.609 143.546 C 156.025 143.546,148.423 143.594,157.715 143.652 " stroke="none" fill="#6c6c6c" fill-rule="evenodd"></path><path id="path3" d="" stroke="none" fill="#848484" fill-rule="evenodd"></path><path id="path4" d="" stroke="none" fill="#8c8c8c" fill-rule="evenodd"></path><path id="path5" d="" stroke="none" fill="#545454" fill-rule="evenodd"></path><path id="path6" d="" stroke="none" fill="#5c5c5c" fill-rule="evenodd"></path><path id="path7" d="" stroke="none" fill="#4c4c4c" fill-rule="evenodd"></path><path id="path8" d="M102.976 25.434 C 75.073 27.213,56.945 35.809,42.112 54.297 C 32.334 66.483,25.781 85.701,25.781 102.190 C 25.781 102.652,32.407 102.734,69.622 102.734 L 113.463 102.734 116.879 101.270 C 118.758 100.464,120.293 99.717,120.291 99.609 C 120.289 99.502,113.042 96.258,104.187 92.401 C 95.331 88.544,83.296 83.290,77.441 80.725 L 66.797 76.061 66.797 70.020 C 66.797 65.343,66.907 64.023,67.285 64.176 C 67.725 64.353,93.512 75.888,123.633 89.380 L 134.961 94.454 135.072 98.594 L 135.183 102.734 254.739 102.734 L 374.295 102.734 374.069 100.488 C 373.945 99.253,373.740 97.100,373.615 95.703 C 371.994 77.626,365.837 62.776,355.082 51.000 C 339.633 34.086,323.533 27.120,295.898 25.393 C 288.329 24.920,110.445 24.958,102.976 25.434 " stroke="none" fill="#444444" fill-rule="evenodd"></path></g></svg>